# This file uses centimeters as units for non-parametric coordinates.

mtllib light UV.mtl
g default
v 8.698121 5.098287 7.790598
v 17.038823 5.098287 3.041321
v 8.698121 5.640992 7.790596
v 17.038823 5.640992 3.041319
v 8.698121 5.640992 6.092837
v 17.038823 5.640992 1.336913
v 8.698121 5.098287 6.092837
v 17.038823 5.098287 1.336915
v 0.064565 5.098287 3.041321
v 0.064565 5.640992 3.041319
v 0.101812 5.640992 1.336913
v 0.101812 5.098287 1.336913
v -10.173392 5.098287 7.790598
v -18.514148 5.098287 3.041321
v -10.173392 5.640992 7.790596
v -18.514148 5.640992 3.041319
v -10.173392 5.640992 6.092837
v -18.514148 5.640992 1.336913
v -10.173392 5.098287 6.092839
v -18.514148 5.098287 1.336915
v -1.924464 5.098287 3.041321
v -1.924464 5.640992 3.041319
v -1.961787 5.640992 1.336913
v -1.961787 5.098285 1.336915
v 0.101812 5.098287 -2.024309
v -1.961787 5.098285 -2.024307
v -1.961787 5.640992 -2.024309
v 0.101812 5.640992 -2.024309
v 8.698121 5.098287 -11.839212
v 17.038823 5.098287 -7.089933
v 8.698121 5.640992 -11.839214
v 17.038823 5.640992 -7.089935
v 8.698121 5.640992 -10.141452
v 17.038823 5.640992 -5.385529
v 8.698121 5.098287 -10.141452
v 17.038823 5.098287 -5.385527
v 0.064565 5.098287 -7.089933
v 0.064565 5.640992 -7.089935
v 0.101812 5.640992 -5.385529
v 0.101812 5.098287 -5.385529
v -10.173392 5.098287 -11.839212
v -18.514148 5.098287 -7.089933
v -10.173392 5.640992 -11.839214
v -18.514148 5.640992 -7.089935
v -10.173392 5.640992 -10.141452
v -18.514148 5.640992 -5.385529
v -10.173392 5.098287 -10.141450
v -18.514148 5.098287 -5.385527
v -1.924464 5.098287 -7.089933
v -1.924464 5.640992 -7.089935
v -1.961787 5.640992 -5.385529
v -1.961787 5.098285 -5.385527
vt 0.300379 0.945574
vt 0.839753 0.676707
vt 0.110833 0.927067
vt 0.492496 0.674057
vt 0.077173 0.927056
vt 0.743681 0.057756
vt 0.077171 0.945501
vt 0.753084 0.832928
vt 0.404920 0.513320
vt 0.494975 0.945637
vt 0.566672 0.057691
vt 0.784151 0.832925
vt 0.870699 0.676703
vt 0.722233 0.927267
vt 0.404934 0.167436
vt 0.911781 0.945773
vt 0.461201 0.322720
vt 0.916963 0.122524
vt 0.741090 0.104356
vt 0.784112 0.515018
vt 0.404921 0.476290
vt 0.534255 0.945650
vt 0.373490 0.475594
vt 0.567279 0.104741
vt 0.505715 0.104877
vt 0.753045 0.515719
vt 0.311505 0.475591
vt 0.506110 0.057668
vt 0.839710 0.323266
vt 0.300180 0.892974
vt 0.218075 0.829327
vt 0.110332 0.873678
vt 0.161808 0.674043
vt 0.095546 0.057517
vt 0.268538 0.077843
vt 0.870655 0.323263
vt 0.495087 0.892985
vt 0.784069 0.167061
vt 0.249519 0.514007
vt 0.445548 0.077908
vt 0.722710 0.873715
vt 0.753002 0.167065
vt 0.912559 0.893008
vt 0.130513 0.322706
vt 0.946273 0.893010
vt 0.270351 0.123957
vt 0.946276 0.873727
vt 0.784107 0.477766
vt 0.753040 0.477070
vt 0.534430 0.892987
vt 0.444162 0.123572
vt 0.691774 0.477078
vt 0.311504 0.514010
vt 0.445549 0.057646
vt 0.505727 0.123435
vt 0.249520 0.475589
vt 0.161822 0.322708
vt 0.722707 0.892998
vt 0.218089 0.476282
vt 0.218088 0.513313
vt 0.249533 0.167429
vt 0.218102 0.167428
vt 0.268540 0.057581
vt 0.130499 0.674042
vt 0.249506 0.829328
vt 0.110328 0.892962
vt 0.373489 0.514012
vt 0.567291 0.123299
vt 0.741102 0.122913
vt 0.534257 0.927206
vt 0.492510 0.322721
vt 0.494977 0.927193
vt 0.373502 0.167434
vt 0.911783 0.927329
vt 0.461187 0.674056
vt 0.300381 0.927130
vt 0.373476 0.829333
vt 0.404907 0.829334
vt 0.691778 0.515727
vt 0.444150 0.105015
vt 0.543844 0.676743
vt 0.506109 0.077930
vt 0.270340 0.105400
vt 0.534433 0.873703
vt 0.512898 0.676747
vt 0.495090 0.873701
vt 0.599484 0.832947
vt 0.912563 0.873725
vt 0.630551 0.832943
vt 0.300184 0.873690
vt 0.599445 0.515040
vt 0.095544 0.077780
vt 0.566670 0.077952
vt 0.630512 0.515734
vt 0.543800 0.323303
vt 0.722231 0.945712
vt 0.630469 0.167080
vt 0.599402 0.167084
vt 0.512854 0.323307
vt 0.916951 0.103967
vt 0.743679 0.078018
vt 0.630507 0.477085
vt 0.599440 0.477788
vt 0.110830 0.945511
vt 0.094490 0.124346
vt 0.094478 0.105789
vt 0.076618 0.873676
vt 0.076615 0.892960
vt 0.945440 0.945784
vt 0.945442 0.927340
vt 0.916675 0.057819
vt 0.916673 0.078081
vn 0.000000 0.000000 1.000000
vn 0.494816 0.000000 0.868998
vn 0.494816 0.000000 0.868998
vn 0.000000 0.000000 1.000000
vn 0.000000 1.000000 0.000000
vn 0.000000 1.000000 0.000000
vn 0.000000 1.000000 0.000000
vn 0.000000 1.000000 0.000000
vn 0.000000 0.000000 -1.000000
vn -0.495338 0.000000 -0.868700
vn -0.495338 0.000000 -0.868700
vn 0.000000 0.000000 -1.000000
vn 0.000000 -1.000000 0.000000
vn 0.000000 -1.000000 0.000000
vn 0.000000 -1.000000 0.000000
vn 0.000000 -1.000000 0.000000
vn 1.000000 0.000000 0.000000
vn 1.000000 0.000000 0.000000
vn 1.000000 0.000000 0.000000
vn 1.000000 0.000000 0.000000
vn -0.481983 0.000000 0.876181
vn -0.481983 0.000000 0.876181
vn 0.000000 0.000000 1.000000
vn 0.000000 0.000000 1.000000
vn 0.000000 1.000000 0.000000
vn 0.000000 1.000000 0.000000
vn 0.000000 1.000000 0.000000
vn 0.000000 1.000000 0.000000
vn 0.484102 0.000000 -0.875012
vn 0.484102 0.000000 -0.875012
vn 0.000000 0.000000 -1.000000
vn 0.000000 0.000000 -1.000000
vn 0.000000 -1.000000 0.000000
vn 0.000001 -1.000000 0.000000
vn 0.000000 -1.000000 0.000000
vn 0.000000 -1.000000 0.000000
vn 0.000000 0.000000 1.000000
vn 0.000000 0.000000 1.000000
vn -0.494814 0.000000 0.868999
vn -0.494814 0.000000 0.868999
vn 0.000000 1.000000 0.000000
vn 0.000000 1.000000 0.000000
vn 0.000000 1.000000 0.000000
vn 0.000000 1.000000 0.000000
vn -0.000001 0.000000 -1.000000
vn -0.000001 0.000000 -1.000000
vn 0.495336 0.000000 -0.868701
vn 0.495336 0.000000 -0.868701
vn 0.000000 -1.000000 0.000000
vn 0.000000 -1.000000 0.000000
vn 0.000000 -1.000000 0.000000
vn 0.000000 -1.000000 0.000000
vn -1.000000 0.000000 0.000000
vn -1.000000 0.000000 0.000000
vn -1.000000 0.000000 0.000000
vn -1.000000 0.000000 0.000000
vn 0.000000 0.000000 1.000000
vn 0.420815 0.000000 0.907146
vn 0.420815 0.000000 0.907146
vn 0.000000 0.000000 1.000000
vn 0.000000 1.000000 0.000000
vn 0.000000 1.000000 0.000000
vn 0.000000 1.000000 0.000000
vn 0.000000 1.000000 0.000000
vn 0.000000 -1.000000 0.000000
vn 0.000000 -1.000000 0.000001
vn 0.000001 -1.000000 0.000000
vn 0.000001 -1.000000 0.000000
vn 0.420815 0.000000 0.907146
vn 0.420815 0.000000 0.907146
vn 0.000000 0.000000 1.000000
vn 0.000000 0.000000 1.000000
vn 0.000000 1.000000 0.000000
vn 0.000000 1.000000 0.000000
vn 0.000000 1.000000 0.000000
vn 0.000000 1.000000 0.000000
vn -0.501181 0.000000 -0.865342
vn -0.501181 0.000000 -0.865342
vn -0.000001 0.000000 -1.000000
vn -0.000001 0.000000 -1.000000
vn 0.000001 -1.000000 0.000000
vn 0.000000 -1.000000 0.000001
vn 0.000000 -1.000000 0.000000
vn 0.000000 -1.000000 0.000000
vn 0.000001 -1.000000 0.000000
vn 0.000001 -1.000000 0.000000
vn 0.000001 -1.000000 0.000000
vn 0.000001 -1.000000 0.000000
vn -1.000000 0.000000 0.000000
vn -1.000000 0.000000 0.000000
vn -1.000000 0.000000 0.000000
vn -1.000000 0.000000 0.000000
vn 0.000000 1.000000 0.000000
vn 0.000000 1.000000 0.000000
vn 0.000000 1.000000 0.000000
vn 0.000000 1.000000 0.000000
vn 1.000000 0.000000 0.000000
vn 1.000000 0.000000 0.000000
vn 1.000000 0.000000 0.000000
vn 1.000000 0.000000 0.000000
vn 0.000000 0.000000 -1.000000
vn 0.000000 0.000000 -1.000000
vn 0.494816 0.000000 -0.868998
vn 0.494816 0.000000 -0.868998
vn 0.000000 1.000000 0.000000
vn 0.000000 1.000000 0.000000
vn 0.000000 1.000000 0.000000
vn 0.000000 1.000000 0.000000
vn 0.000000 0.000000 1.000000
vn 0.000000 0.000000 1.000000
vn -0.495338 0.000000 0.868700
vn -0.495338 0.000000 0.868700
vn 0.000000 -1.000000 0.000000
vn 0.000000 -1.000000 0.000000
vn 0.000000 -1.000000 0.000000
vn 0.000000 -1.000000 0.000000
vn 1.000000 0.000000 0.000000
vn 1.000000 0.000000 0.000000
vn 1.000000 0.000000 0.000000
vn 1.000000 0.000000 0.000000
vn -0.481983 0.000000 -0.876181
vn 0.000000 0.000000 -1.000000
vn 0.000000 0.000000 -1.000000
vn -0.481983 0.000000 -0.876181
vn 0.000000 1.000000 0.000000
vn 0.000000 1.000000 0.000000
vn 0.000000 1.000000 0.000000
vn 0.000000 1.000000 0.000000
vn 0.484102 0.000000 0.875012
vn 0.000000 0.000000 1.000000
vn 0.000000 0.000000 1.000000
vn 0.484102 0.000000 0.875012
vn 0.000000 -1.000000 0.000000
vn 0.000000 -1.000000 0.000000
vn 0.000000 -1.000000 0.000000
vn 0.000001 -1.000000 0.000000
vn 0.000000 0.000000 -1.000000
vn -0.494814 0.000000 -0.868999
vn -0.494814 0.000000 -0.868999
vn 0.000000 0.000000 -1.000000
vn 0.000000 1.000000 0.000000
vn 0.000000 1.000000 0.000000
vn 0.000000 1.000000 0.000000
vn 0.000000 1.000000 0.000000
vn -0.000001 0.000000 1.000000
vn 0.495336 0.000000 0.868701
vn 0.495336 0.000000 0.868701
vn -0.000001 0.000000 1.000000
vn 0.000000 -1.000000 0.000000
vn 0.000000 -1.000000 0.000000
vn 0.000000 -1.000000 0.000000
vn 0.000000 -1.000000 0.000000
vn -1.000000 0.000000 0.000000
vn -1.000000 0.000000 0.000000
vn -1.000000 0.000000 0.000000
vn -1.000000 0.000000 0.000000
vn 0.000000 0.000000 -1.000000
vn 0.000000 0.000000 -1.000000
vn 0.420815 0.000000 -0.907146
vn 0.420815 0.000000 -0.907146
vn 0.000000 1.000000 0.000000
vn 0.000000 1.000000 0.000000
vn 0.000000 1.000000 0.000000
vn 0.000000 1.000000 0.000000
vn 0.000000 -1.000000 0.000000
vn 0.000001 -1.000000 0.000000
vn 0.000001 -1.000000 0.000000
vn 0.000000 -1.000000 -0.000001
vn 0.420815 0.000000 -0.907146
vn 0.000000 0.000000 -1.000000
vn 0.000000 0.000000 -1.000000
vn 0.420815 0.000000 -0.907146
vn 0.000000 1.000000 0.000000
vn 0.000000 1.000000 0.000000
vn 0.000000 1.000000 0.000000
vn 0.000000 1.000000 0.000000
vn -0.501181 0.000000 0.865342
vn -0.000001 0.000000 1.000000
vn -0.000001 0.000000 1.000000
vn -0.501181 0.000000 0.865342
vn 0.000001 -1.000000 0.000000
vn 0.000000 -1.000000 0.000000
vn 0.000000 -1.000000 0.000000
vn 0.000000 -1.000000 -0.000001
vn 0.000001 -1.000000 0.000000
vn 0.000001 -1.000000 0.000000
vn 0.000001 -1.000000 0.000000
vn 0.000001 -1.000000 0.000000
vn -1.000000 0.000000 0.000000
vn -1.000000 0.000000 0.000000
vn -1.000000 0.000000 0.000000
vn -1.000000 0.000000 0.000000
vn 0.000000 1.000000 0.000000
vn 0.000000 1.000000 0.000000
vn 0.000000 1.000000 0.000000
vn 0.000000 1.000000 0.000000
vn 1.000000 0.000000 0.000000
vn 1.000000 0.000000 0.000000
vn 1.000000 0.000000 0.000000
vn 1.000000 0.000000 0.000000
s off
g pasted__polySurface1 walk_rood:polySurface1 group
usemtl initialShadingGroup
f 1/1/1 2/104/2 4/3/3 3/76/4
f 3/4/5 4/78/6 6/77/7 5/75/8
f 5/6/9 6/111/10 8/112/11 7/101/12
f 7/2/13 8/8/14 2/12/15 1/13/16
f 2/104/17 8/7/18 6/5/19 4/3/20
f 10/72/21 9/10/22 1/1/23 3/76/24
f 11/67/25 10/9/26 3/4/27 5/75/28
f 12/93/29 11/11/30 5/6/31 7/101/32
f 9/20/33 12/26/34 7/2/35 1/13/36
f 13/96/37 15/14/38 16/74/39 14/16/40
f 15/71/41 17/17/42 18/73/43 16/15/44
f 17/69/45 19/19/46 20/100/47 18/18/48
f 19/29/49 13/36/50 14/38/51 20/42/52
f 14/16/53 16/74/54 18/110/55 20/109/56
f 10/72/57 22/70/58 21/22/59 9/10/60
f 11/67/61 23/23/62 22/21/63 10/9/64
f 9/20/65 21/48/66 24/49/67 12/26/68
f 21/22/69 22/70/70 15/14/71 13/96/72
f 22/21/73 23/23/74 17/17/75 15/71/76
f 23/68/77 24/24/78 19/19/79 17/69/80
f 24/49/81 21/48/82 13/36/83 19/29/84
f 12/26/85 24/49/86 26/52/87 25/79/88
f 24/24/89 23/68/90 27/55/91 26/25/92
f 23/23/93 11/67/94 28/53/95 27/27/96
f 11/11/97 12/93/98 25/82/99 28/28/100
f 29/90/101 31/30/102 32/66/103 30/32/104
f 31/64/105 33/33/106 34/65/107 32/31/108
f 33/63/109 35/35/110 36/92/111 34/34/112
f 35/81/113 29/85/114 30/87/115 36/89/116
f 30/32/117 32/66/118 34/108/119 36/107/120
f 38/37/121 31/30/122 29/90/123 37/86/124
f 39/39/125 33/33/126 31/64/127 38/60/128
f 40/40/129 35/35/130 33/63/131 39/54/132
f 37/91/133 29/85/134 35/81/135 40/94/136
f 41/41/137 42/88/138 44/43/139 43/58/140
f 43/44/141 44/62/142 46/61/143 45/57/144
f 45/46/145 46/105/146 48/106/147 47/83/148
f 47/95/149 48/97/150 42/98/151 41/99/152
f 42/88/153 48/47/154 46/45/155 44/43/156
f 38/37/157 37/86/158 49/84/159 50/50/160
f 39/39/161 38/60/162 50/59/163 51/56/164
f 37/91/165 40/94/166 52/102/167 49/103/168
f 49/84/169 41/41/170 43/58/171 50/50/172
f 50/59/173 43/44/174 45/57/175 51/56/176
f 51/51/177 45/46/178 47/83/179 52/80/180
f 52/102/181 47/95/182 41/99/183 49/103/184
f 40/94/185 25/79/186 26/52/187 52/102/188
f 52/80/189 26/25/190 27/55/191 51/51/192
f 51/56/193 27/27/194 28/53/195 39/39/196
f 39/54/197 28/28/198 25/82/199 40/40/200
