# This file uses meters as units for non-parametric coordinates.

mtllib wall2.mtl
g wall_UV_01_1:default1
v 6.875255 5.268039 11.099600
v 6.875255 2.269481 11.099600
v 0.393576 5.268039 11.099600
v 0.393576 2.269481 11.099600
v 6.875255 5.268039 11.218043
v 6.875255 2.269481 11.218043
v 0.393576 5.268039 11.218043
v 0.393576 2.269481 11.218043
v 6.875255 4.678407 11.099600
v 0.393576 4.678407 11.099600
v 6.875255 4.678407 11.218043
v 0.393576 4.678407 11.218043
v 6.875257 2.572686 11.099600
v 0.393576 2.572686 11.099600
v 6.875257 2.572686 11.218043
v 0.393576 2.572686 11.218043
v 6.875255 2.269481 11.379762
v 0.393576 2.269481 11.379762
v 6.875255 5.268039 11.379762
v 0.393576 5.268039 11.379762
v 6.875257 2.523429 11.379762
v 6.875257 2.572686 11.347420
v 0.393576 2.523429 11.379762
v 0.393576 2.572686 11.347420
v 6.875255 4.742843 11.379762
v 6.875255 4.678407 11.347420
v 0.393576 4.742843 11.379762
v 0.393576 4.678407 11.347420
v 6.875252 4.742844 11.099600
v 0.393576 4.742844 11.099600
v 6.875255 4.742844 11.218041
v 0.393576 4.742844 11.218041
v 6.875260 2.523428 11.099600
v 0.393576 2.523428 11.099600
v 6.875255 2.523429 11.218043
v 0.393576 2.523429 11.218043
v 6.875255 2.523428 11.218043
v 5.752475 4.785610 11.085599
v 5.957218 4.785610 11.085599
v 5.752475 2.512240 11.085599
v 5.957218 2.512240 11.085599
v 5.752475 2.512240 11.274599
v 5.772947 2.512240 11.295073
v 5.752475 4.785610 11.274599
v 5.772947 4.785610 11.295073
v 5.957218 2.512240 11.274599
v 5.936747 2.512240 11.295073
v 5.957218 4.785610 11.274599
v 5.936747 4.785610 11.295073
v 4.273947 4.785610 11.085599
v 4.478691 4.785610 11.085599
v 4.273947 2.512240 11.085599
v 4.478691 2.512240 11.085599
v 4.273947 2.512240 11.274599
v 4.294419 2.512240 11.295073
v 4.273947 4.785610 11.274599
v 4.294419 4.785610 11.295073
v 4.478691 2.512240 11.274599
v 4.458219 2.512240 11.295073
v 4.478691 4.785610 11.274599
v 4.458219 4.785610 11.295073
v 2.717696 4.785610 11.085599
v 2.922440 4.785610 11.085599
v 2.717696 2.512240 11.085599
v 2.922440 2.512240 11.085599
v 2.717696 2.512240 11.274599
v 2.738168 2.512240 11.295073
v 2.717696 4.785610 11.274599
v 2.738168 4.785610 11.295073
v 2.922440 2.512240 11.274599
v 2.901967 2.512240 11.295073
v 2.922440 4.785610 11.274599
v 2.901967 4.785610 11.295073
v 1.140815 4.785610 11.085599
v 1.345559 4.785610 11.085599
v 1.140815 2.512240 11.085599
v 1.345559 2.512240 11.085599
v 1.140815 2.512240 11.274599
v 1.161287 2.512240 11.295073
v 1.140815 4.785610 11.274599
v 1.161287 4.785610 11.295073
v 1.345559 2.512240 11.274599
v 1.325087 2.512240 11.295073
v 1.345559 4.785610 11.274599
v 1.325087 4.785610 11.295073
vt 0.896344 0.067280
vt 0.896342 0.128278
vt 0.099494 0.128147
vt 0.099497 0.067149
vt 0.013163 0.899713
vt 0.013148 0.103704
vt 0.041245 0.103697
vt 0.041260 0.899706
vt 0.930787 0.067284
vt 0.930785 0.128283
vt 0.916223 0.128281
vt 0.916223 0.128280
vt 0.916226 0.067282
vt 0.895908 0.982870
vt 0.099904 0.982943
vt 0.099903 0.967682
vt 0.895907 0.967610
vt 0.065495 0.946850
vt 0.065489 0.879183
vt 0.080035 0.879182
vt 0.080041 0.946848
vt 0.099500 0.030563
vt 0.896347 0.030660
vt 0.896346 0.051764
vt 0.099499 0.051667
vt 0.099895 0.879180
vt 0.895899 0.879108
vt 0.895905 0.946774
vt 0.099901 0.946847
vt 0.941686 0.908787
vt 0.941604 0.116489
vt 0.953551 0.116487
vt 0.953606 0.908785
vt 0.915759 0.870804
vt 0.930305 0.870803
vt 0.930305 0.879105
vt 0.915760 0.879106
vt 0.093351 0.780450
vt 0.073615 0.780450
vt 0.073620 0.525025
vt 0.093356 0.525025
vt 0.889238 0.525039
vt 0.889233 0.780464
vt 0.091270 0.209928
vt 0.885991 0.209943
vt 0.885986 0.451876
vt 0.091265 0.451860
vt 0.908975 0.525040
vt 0.908969 0.780465
vt 0.079612 0.139976
vt 0.065051 0.139973
vt 0.065052 0.128142
vt 0.079613 0.128144
vt 0.896340 0.159378
vt 0.099492 0.159281
vt 0.099494 0.142301
vt 0.896341 0.142432
vt 0.095518 0.139978
vt 0.099893 0.853222
vt 0.895897 0.853150
vt 0.895898 0.869819
vt 0.099895 0.869891
vt 0.899870 0.870806
vt 0.065488 0.870881
vt 0.080034 0.870880
vt 0.982321 0.116477
vt 0.982377 0.908775
vt 0.930311 0.946771
vt 0.915765 0.946773
vt 0.054809 0.103695
vt 0.054834 0.899705
vt 0.930785 0.140115
vt 0.916223 0.140112
vt 0.065054 0.067143
vt 0.079616 0.067145
vt 0.095923 0.870879
vt 0.900318 0.140110
vt 0.403007 0.899583
vt 0.402961 0.092284
vt 0.461129 0.092281
vt 0.461174 0.899580
vt 0.611278 0.899571
vt 0.538571 0.899575
vt 0.538526 0.092276
vt 0.611233 0.092272
vt 0.538522 0.025160
vt 0.545792 0.017890
vt 0.603959 0.017886
vt 0.611229 0.025156
vt 0.471455 0.899579
vt 0.471410 0.092280
vt 0.325564 0.092288
vt 0.392680 0.092285
vt 0.392725 0.899583
vt 0.325609 0.899587
vt 0.611282 0.966688
vt 0.604012 0.973958
vt 0.545845 0.973961
vt 0.538575 0.966692
vt 0.403007 0.899583
vt 0.402961 0.092284
vt 0.461129 0.092281
vt 0.461174 0.899580
vt 0.611278 0.899571
vt 0.538571 0.899575
vt 0.538526 0.092276
vt 0.611233 0.092272
vt 0.538522 0.025160
vt 0.545792 0.017890
vt 0.603959 0.017886
vt 0.611229 0.025156
vt 0.471455 0.899579
vt 0.471410 0.092280
vt 0.325564 0.092288
vt 0.392680 0.092285
vt 0.392725 0.899583
vt 0.325609 0.899587
vt 0.611282 0.966688
vt 0.604012 0.973958
vt 0.545845 0.973961
vt 0.538575 0.966692
vt 0.403007 0.899583
vt 0.402961 0.092284
vt 0.461129 0.092281
vt 0.461174 0.899580
vt 0.611278 0.899571
vt 0.538571 0.899575
vt 0.538526 0.092276
vt 0.611233 0.092272
vt 0.538522 0.025160
vt 0.545792 0.017890
vt 0.603959 0.017886
vt 0.611229 0.025156
vt 0.471455 0.899579
vt 0.471410 0.092280
vt 0.325564 0.092288
vt 0.392680 0.092285
vt 0.392725 0.899583
vt 0.325609 0.899587
vt 0.611282 0.966688
vt 0.604012 0.973958
vt 0.545845 0.973961
vt 0.538575 0.966692
vt 0.403007 0.899583
vt 0.402961 0.092284
vt 0.461129 0.092281
vt 0.461174 0.899580
vt 0.611278 0.899571
vt 0.538571 0.899575
vt 0.538526 0.092276
vt 0.611233 0.092272
vt 0.538522 0.025160
vt 0.545792 0.017890
vt 0.603959 0.017886
vt 0.611229 0.025156
vt 0.471455 0.899579
vt 0.471410 0.092280
vt 0.325564 0.092288
vt 0.392680 0.092285
vt 0.392725 0.899583
vt 0.325609 0.899587
vt 0.611282 0.966688
vt 0.604012 0.973958
vt 0.545845 0.973961
vt 0.538575 0.966692
vn 0.000000 0.000000 1.000000
vn 0.000000 0.000000 1.000000
vn 0.000000 0.000000 1.000000
vn 0.000000 0.000000 1.000000
vn 0.000000 0.000000 -1.000000
vn 0.000000 0.000000 -1.000000
vn 0.000000 0.000000 -1.000000
vn 0.000000 0.000000 -1.000000
vn 1.000000 -0.000008 0.000023
vn 1.000000 -0.000007 0.000023
vn 1.000000 -0.000014 0.000014
vn 1.000000 -0.000011 0.000009
vn 1.000000 -0.000010 0.000005
vn 0.000000 1.000000 0.000000
vn 0.000000 1.000000 0.000000
vn 0.000000 1.000000 0.000000
vn 0.000000 1.000000 0.000000
vn -1.000000 0.000000 0.000000
vn -1.000000 -0.000001 0.000000
vn -1.000000 -0.000002 0.000000
vn -1.000000 -0.000003 0.000000
vn 0.000000 -1.000000 0.000000
vn 0.000000 -1.000000 0.000000
vn 0.000000 -1.000000 0.000000
vn 0.000000 -1.000000 0.000000
vn 0.000000 0.000000 1.000000
vn 0.000000 0.000000 1.000000
vn 0.000000 0.000000 1.000000
vn 0.000000 0.000000 1.000000
vn 0.000000 0.000000 -1.000000
vn 0.000000 0.000000 -1.000000
vn 0.000000 0.000000 -1.000000
vn 0.000000 0.000000 -1.000000
vn 1.000000 0.000003 0.000000
vn 1.000000 0.000003 0.000000
vn 1.000000 0.000000 -0.000011
vn 1.000000 0.000000 -0.000005
vn -1.000000 0.000001 0.000000
vn -1.000000 0.000000 0.000000
vn -1.000000 0.000000 0.000000
vn -1.000000 0.000001 0.000000
vn 0.000000 0.000000 1.000000
vn 0.000000 0.000000 1.000000
vn 0.000000 0.000000 1.000000
vn 0.000000 0.000000 1.000000
vn 0.000000 0.000000 -1.000000
vn 0.000000 0.000000 -1.000000
vn 0.000000 0.000000 -1.000000
vn 0.000000 0.000000 -1.000000
vn 1.000000 0.000000 0.000000
vn 1.000000 0.000001 0.000001
vn 1.000000 0.000003 0.000000
vn 1.000000 0.000003 0.000000
vn -1.000000 0.000001 0.000000
vn -1.000000 0.000000 0.000000
vn -1.000000 0.000000 0.000000
vn -1.000000 0.000003 0.000000
vn 1.000000 -0.000010 0.000005
vn 1.000000 -0.000011 0.000009
vn 1.000000 -0.000014 -0.000008
vn 1.000000 -0.000012 -0.000008
vn 0.000000 1.000000 0.000000
vn 0.000000 1.000000 0.000000
vn 0.000000 1.000000 0.000000
vn 0.000000 1.000000 0.000000
vn -1.000000 0.000001 0.000000
vn -1.000000 0.000003 0.000000
vn -1.000000 0.000003 0.000000
vn -1.000000 0.000033 0.000000
vn 0.000000 -1.000000 0.000000
vn 0.000000 -1.000000 0.000000
vn 0.000000 -1.000000 0.000000
vn 0.000000 -1.000000 0.000000
vn 0.000000 -1.000000 0.000000
vn 0.000000 -1.000000 0.000000
vn 0.000000 -1.000000 0.000000
vn 0.000000 -1.000000 0.000000
vn 1.000000 0.000003 0.000000
vn 1.000000 0.000000 -0.000005
vn 1.000000 0.000000 0.000000
vn 1.000000 0.000000 0.000000
vn 0.000000 1.000000 0.000000
vn 0.000000 1.000000 0.000000
vn 0.000000 1.000000 0.000000
vn 0.000000 1.000000 0.000000
vn -1.000000 -0.000003 0.000000
vn -1.000000 -0.000002 0.000000
vn -1.000000 -0.000003 0.000000
vn -1.000000 -0.000006 0.000000
vn 0.000000 0.548849 0.835921
vn 0.000000 0.548849 0.835921
vn 0.000000 0.548849 0.835921
vn 0.000000 0.548849 0.835921
vn 0.000000 -0.448586 0.893740
vn 0.000000 -0.448586 0.893740
vn 0.000000 -0.448586 0.893740
vn 0.000000 -0.448586 0.893740
vn -1.000000 -0.000002 0.000000
vn -1.000000 -0.000001 0.000000
vn -1.000000 0.000000 0.000000
vn -1.000000 0.000001 0.000000
vn 0.000000 0.000000 -1.000000
vn 0.000000 0.000000 -1.000000
vn 0.000000 0.000000 -1.000000
vn 0.000000 0.000000 -1.000000
vn 1.000000 0.000000 -0.000005
vn 1.000000 0.000000 -0.000011
vn 1.000000 -0.000008 -0.000011
vn 1.000000 -0.000003 -0.000005
vn 0.000000 0.000000 -1.000000
vn 0.000000 0.000000 -1.000000
vn 0.000000 0.000000 -1.000000
vn 0.000000 0.000000 -1.000000
vn 1.000000 -0.000014 0.000014
vn 1.000000 -0.000007 0.000023
vn 1.000000 0.000001 0.000001
vn 1.000000 0.000000 0.000000
vn -1.000000 0.000003 0.000000
vn -1.000000 0.000000 0.000000
vn -1.000000 0.000000 0.000000
vn -1.000000 0.000000 0.000000
vn -1.000000 -0.000003 0.000000
vn -1.000000 -0.000002 0.000000
vn -1.000000 0.000001 0.000000
vn -1.000000 0.000032 0.000000
vn -1.000000 0.000003 0.000000
vn -1.000000 0.000003 0.000000
vn -1.000000 0.000000 0.000000
vn -1.000000 0.000000 0.000000
vn 1.000000 -0.000014 -0.000008
vn 1.000000 -0.000011 0.000009
vn 1.000000 -0.000014 0.000014
vn 1.000000 0.000000 0.000000
vn 1.000000 -0.000033 -0.000009
vn 1.000000 0.000000 0.000000
vn 1.000000 0.000000 -0.000005
vn 1.000000 -0.000003 -0.000005
vn 1.000000 0.000000 0.000000
vn 0.000000 0.000000 1.000000
vn 0.000000 0.000000 1.000000
vn 0.000000 0.000000 1.000000
vn 0.000000 0.000000 1.000000
vn 0.000000 0.000000 -1.000000
vn 0.000000 0.000000 -1.000000
vn 0.000000 0.000000 -1.000000
vn 0.000000 0.000000 -1.000000
vn 0.000000 -1.000000 0.000000
vn 0.000000 -1.000000 0.000000
vn 0.000000 -1.000000 0.000000
vn 0.000000 -1.000000 0.000000
vn 0.000000 -1.000000 0.000000
vn 0.000000 -1.000000 0.000000
vn 1.000000 0.000000 0.000000
vn 1.000000 0.000000 0.000000
vn 1.000000 0.000000 0.000000
vn 1.000000 0.000000 0.000000
vn -1.000000 0.000000 0.000000
vn -1.000000 0.000000 0.000000
vn -1.000000 0.000000 0.000000
vn -1.000000 0.000000 0.000000
vn 0.000000 1.000000 0.000000
vn 0.000000 1.000000 0.000000
vn 0.000000 1.000000 0.000000
vn 0.000000 1.000000 0.000000
vn 0.000000 1.000000 0.000000
vn 0.000000 1.000000 0.000000
vn -0.707111 0.000000 0.707103
vn -0.707111 0.000000 0.707103
vn -0.707111 0.000000 0.707103
vn -0.707111 0.000000 0.707103
vn 0.707111 0.000000 0.707103
vn 0.707111 0.000000 0.707103
vn 0.707111 0.000000 0.707103
vn 0.707111 0.000000 0.707103
vn 0.000000 0.000000 1.000000
vn 0.000000 0.000000 1.000000
vn 0.000000 0.000000 1.000000
vn 0.000000 0.000000 1.000000
vn 0.000000 0.000000 -1.000000
vn 0.000000 0.000000 -1.000000
vn 0.000000 0.000000 -1.000000
vn 0.000000 0.000000 -1.000000
vn 0.000000 -1.000000 0.000000
vn 0.000000 -1.000000 0.000000
vn 0.000000 -1.000000 0.000000
vn 0.000000 -1.000000 0.000000
vn 0.000000 -1.000000 0.000000
vn 0.000000 -1.000000 0.000000
vn 1.000000 0.000000 0.000000
vn 1.000000 0.000000 0.000000
vn 1.000000 0.000000 0.000000
vn 1.000000 0.000000 0.000000
vn -1.000000 0.000000 0.000000
vn -1.000000 0.000000 0.000000
vn -1.000000 0.000000 0.000000
vn -1.000000 0.000000 0.000000
vn 0.000000 1.000000 0.000000
vn 0.000000 1.000000 0.000000
vn 0.000000 1.000000 0.000000
vn 0.000000 1.000000 0.000000
vn 0.000000 1.000000 0.000000
vn 0.000000 1.000000 0.000000
vn -0.707111 0.000000 0.707103
vn -0.707111 0.000000 0.707103
vn -0.707111 0.000000 0.707103
vn -0.707111 0.000000 0.707103
vn 0.707111 0.000000 0.707103
vn 0.707111 0.000000 0.707103
vn 0.707111 0.000000 0.707103
vn 0.707111 0.000000 0.707103
vn 0.000000 0.000000 1.000000
vn 0.000000 0.000000 1.000000
vn 0.000000 0.000000 1.000000
vn 0.000000 0.000000 1.000000
vn 0.000000 0.000000 -1.000000
vn 0.000000 0.000000 -1.000000
vn 0.000000 0.000000 -1.000000
vn 0.000000 0.000000 -1.000000
vn 0.000000 -1.000000 0.000000
vn 0.000000 -1.000000 0.000000
vn 0.000000 -1.000000 0.000000
vn 0.000000 -1.000000 0.000000
vn 0.000000 -1.000000 0.000000
vn 0.000000 -1.000000 0.000000
vn 1.000000 0.000000 0.000000
vn 1.000000 0.000000 0.000000
vn 1.000000 0.000000 0.000000
vn 1.000000 0.000000 0.000000
vn -1.000000 0.000000 0.000000
vn -1.000000 0.000000 0.000000
vn -1.000000 0.000000 0.000000
vn -1.000000 0.000000 0.000000
vn 0.000000 1.000000 0.000000
vn 0.000000 1.000000 0.000000
vn 0.000000 1.000000 0.000000
vn 0.000000 1.000000 0.000000
vn 0.000000 1.000000 0.000000
vn 0.000000 1.000000 0.000000
vn -0.707111 0.000000 0.707103
vn -0.707111 0.000000 0.707103
vn -0.707111 0.000000 0.707103
vn -0.707111 0.000000 0.707103
vn 0.707111 0.000000 0.707103
vn 0.707111 0.000000 0.707103
vn 0.707111 0.000000 0.707103
vn 0.707111 0.000000 0.707103
vn 0.000000 0.000000 1.000000
vn 0.000000 0.000000 1.000000
vn 0.000000 0.000000 1.000000
vn 0.000000 0.000000 1.000000
vn 0.000000 0.000000 -1.000000
vn 0.000000 0.000000 -1.000000
vn 0.000000 0.000000 -1.000000
vn 0.000000 0.000000 -1.000000
vn 0.000000 -1.000000 0.000000
vn 0.000000 -1.000000 0.000000
vn 0.000000 -1.000000 0.000000
vn 0.000000 -1.000000 0.000000
vn 0.000000 -1.000000 0.000000
vn 0.000000 -1.000000 0.000000
vn 1.000000 0.000000 0.000000
vn 1.000000 0.000000 0.000000
vn 1.000000 0.000000 0.000000
vn 1.000000 0.000000 0.000000
vn -1.000000 0.000000 0.000000
vn -1.000000 0.000000 0.000000
vn -1.000000 0.000000 0.000000
vn -1.000000 0.000000 0.000000
vn 0.000000 1.000000 0.000000
vn 0.000000 1.000000 0.000000
vn 0.000000 1.000000 0.000000
vn 0.000000 1.000000 0.000000
vn 0.000000 1.000000 0.000000
vn 0.000000 1.000000 0.000000
vn -0.707111 0.000000 0.707103
vn -0.707111 0.000000 0.707103
vn -0.707111 0.000000 0.707103
vn -0.707111 0.000000 0.707103
vn 0.707111 0.000000 0.707103
vn 0.707111 0.000000 0.707103
vn 0.707111 0.000000 0.707103
vn 0.707111 0.000000 0.707103
s off
g wall_UV_01_1:group3 wall_UV_01_1:pasted__group wall_UV_01_1:pasted__pasted__polySurface4 wall_UV_01_1:pasted__polySurface48 polySurface18
usemtl initialShadingGroup
f 17/1/1 21/2/2 23/3/3 18/4/4
f 2/5/5 4/6/6 34/7/7 33/8/8
f 2/9/9 33/10/10 35/11/11 37/12/12 6/13/13
f 1/14/14 3/15/15 7/16/16 5/17/17
f 3/18/18 30/19/19 32/20/20 7/21/21
f 4/22/22 2/23/23 6/24/24 8/25/25
f 27/26/26 25/27/27 19/28/28 20/29/29
f 9/30/30 10/31/31 30/32/32 29/33/33
f 11/34/34 9/35/35 29/36/36 31/37/37
f 12/38/38 10/39/39 14/40/40 16/41/41
f 16/41/42 15/42/43 11/43/44 12/38/45
f 13/44/46 14/45/47 10/46/48 9/47/49
f 15/42/50 13/48/51 9/49/52 11/43/53
f 16/50/54 14/51/55 34/52/56 36/53/57
f 6/13/58 37/12/59 21/2/60 17/1/61
f 15/54/62 16/55/63 24/56/64 22/57/65
f 16/50/66 36/53/67 23/3/68 24/58/69
f 8/25/70 6/24/71 17/1/72 18/4/73
f 12/59/74 11/60/75 26/61/76 28/62/77
f 11/34/78 31/37/79 25/27/80 26/63/81
f 5/17/82 7/16/83 20/29/84 19/28/85
f 7/21/86 32/20/87 27/26/88 20/29/89
f 21/2/90 22/57/91 24/56/92 23/3/93
f 26/61/94 25/27/95 27/26/96 28/62/97
f 32/20/98 30/19/99 10/64/100 12/65/101
f 29/33/102 30/32/103 3/66/104 1/67/105
f 31/37/106 29/36/107 1/68/108 5/69/109
f 33/8/110 34/7/111 14/70/112 13/71/113
f 35/11/114 33/10/115 13/72/116 15/73/117
f 36/53/118 34/52/119 4/74/120 8/75/121
f 27/26/122 32/20/123 12/65/124 28/76/125
f 23/3/126 36/53/127 8/75/128 18/4/129
f 21/2/130 37/12/131 35/11/132 15/73/133 22/77/134
f 25/27/135 31/37/136 5/69/137 19/28/138
g wall_UV_01_1:group3 wall_UV_01_1:pasted__polySurface62 polySurface18
f 45/78/139 43/79/140 47/80/141 49/81/142
f 38/82/143 39/83/144 41/84/145 40/85/146
f 40/85/147 41/84/148 46/86/149 47/87/150 43/88/151 42/89/152
f 48/90/153 46/91/154 41/84/155 39/83/156
f 40/92/157 42/93/158 44/94/159 38/95/160
f 44/96/161 45/97/162 49/98/163 48/99/164 39/83/165 38/82/166
f 42/93/167 43/79/168 45/78/169 44/94/170
f 47/80/171 46/91/172 48/90/173 49/81/174
f 57/100/175 55/101/176 59/102/177 61/103/178
f 50/104/179 51/105/180 53/106/181 52/107/182
f 52/107/183 53/106/184 58/108/185 59/109/186 55/110/187 54/111/188
f 60/112/189 58/113/190 53/106/191 51/105/192
f 52/114/193 54/115/194 56/116/195 50/117/196
f 56/118/197 57/119/198 61/120/199 60/121/200 51/105/201 50/104/202
f 54/115/203 55/101/204 57/100/205 56/116/206
f 59/102/207 58/113/208 60/112/209 61/103/210
f 69/122/211 67/123/212 71/124/213 73/125/214
f 62/126/215 63/127/216 65/128/217 64/129/218
f 64/129/219 65/128/220 70/130/221 71/131/222 67/132/223 66/133/224
f 72/134/225 70/135/226 65/128/227 63/127/228
f 64/136/229 66/137/230 68/138/231 62/139/232
f 68/140/233 69/141/234 73/142/235 72/143/236 63/127/237 62/126/238
f 66/137/239 67/123/240 69/122/241 68/138/242
f 71/124/243 70/135/244 72/134/245 73/125/246
f 81/144/247 79/145/248 83/146/249 85/147/250
f 74/148/251 75/149/252 77/150/253 76/151/254
f 76/151/255 77/150/256 82/152/257 83/153/258 79/154/259 78/155/260
f 84/156/261 82/157/262 77/150/263 75/149/264
f 76/158/265 78/159/266 80/160/267 74/161/268
f 80/162/269 81/163/270 85/164/271 84/165/272 75/149/273 74/148/274
f 78/159/275 79/145/276 81/144/277 80/160/278
f 83/146/279 82/157/280 84/156/281 85/147/282
