# This file uses meters as units for non-parametric coordinates.

mtllib Cabinet UV.mtl
g default
v -204.424345 92.083322 282.161743
v -204.424345 92.083322 237.133181
v -254.321808 181.821991 282.161743
v -254.321808 181.821991 237.133181
v -254.321808 92.083322 282.161743
v -254.321808 92.083322 237.133181
v -204.424345 92.083322 277.658872
v -254.321808 92.083322 277.658872
v -254.321808 181.821991 277.658872
v -204.424345 92.083322 241.185778
v -254.321808 181.821991 241.185778
v -254.321808 92.083322 241.185778
v -247.086653 181.821991 282.161743
v -247.086653 181.821991 277.658850
v -247.086653 181.821991 241.185778
v -247.086653 181.821991 237.133181
v -247.086653 92.083322 237.133181
v -247.086653 92.083322 241.185778
v -247.086653 92.083322 277.658872
v -247.086653 92.083322 282.161743
v -211.160466 181.821991 282.161743
v -211.160466 181.821991 277.658850
v -211.160466 181.821991 241.185778
v -211.160466 181.821991 237.133181
v -211.160466 92.083322 237.133181
v -211.160466 92.083322 241.185778
v -211.160466 92.083322 277.658850
v -211.160466 92.083322 282.161743
v -204.424345 176.078725 282.161743
v -204.424345 176.078725 277.658850
v -204.424345 176.078725 241.185778
v -204.424345 176.078725 237.133181
v -211.160466 176.078725 237.133181
v -247.086653 176.078725 237.133181
v -254.321808 176.078725 237.133181
v -254.321808 176.078725 241.185778
v -254.321808 176.078725 277.658872
v -254.321808 176.078725 282.161743
v -247.086653 176.078725 282.161743
v -211.160466 176.078725 282.161743
v -204.424345 96.929213 282.161743
v -204.424345 96.929213 277.658850
v -204.424345 96.929213 241.185778
v -204.424345 96.929213 237.133181
v -211.160466 96.929213 237.133181
v -247.086653 96.929213 237.133181
v -254.321808 96.929213 237.133181
v -254.321808 96.929213 241.185778
v -254.321808 96.929213 277.658850
v -254.321808 96.929213 282.161743
v -247.086653 96.929213 282.161743
v -211.160466 96.929213 282.161743
v -211.160466 176.078725 238.220637
v -247.086653 176.078725 238.220637
v -211.160466 96.929213 238.220637
v -247.086653 96.929213 238.220637
v -247.086653 176.078725 281.074244
v -211.160466 176.078725 281.074244
v -247.086653 96.929213 281.074244
v -211.160466 96.929213 281.074244
v -204.424345 159.501026 277.658850
v -204.424345 159.501026 241.185778
v -204.424345 176.078725 261.060176
v -204.424368 159.501026 261.060176
v -204.424368 159.501026 257.368962
v -204.424345 176.078725 257.368962
v -205.071037 159.501026 261.060176
v -205.071037 159.501026 257.368962
v -204.424345 179.798759 282.161743
v -204.875602 180.810396 282.161743
v -206.108268 181.550954 282.161743
v -207.792048 181.821991 282.161743
v -204.424345 179.798759 277.658872
v -204.875602 180.810396 277.658872
v -206.108268 181.550954 277.658872
v -207.792048 181.821991 277.658872
v -207.792048 181.821991 241.185778
v -206.108268 181.550954 241.185778
v -204.875602 180.810396 241.185778
v -204.424345 179.798759 241.185778
v -204.424345 179.798759 237.133181
v -207.792048 181.821991 237.133181
v -206.108268 181.550954 237.133181
v -204.875602 180.810396 237.133181
v -204.424345 156.448571 277.658850
v -204.424345 156.448571 241.185778
v -205.084980 176.078725 261.060176
v -205.084980 176.078725 257.368962
v -204.424321 176.078714 274.495057
v -205.084980 176.078714 274.495057
v -205.071037 159.501026 274.495057
v -204.424345 159.501026 274.495057
v -204.424345 159.501026 244.829197
v -205.071037 159.501026 244.829197
v -205.084980 176.078714 244.829197
v -204.424345 176.078725 244.829197
v -204.424345 156.448571 274.495057
v -204.424345 96.929213 274.495057
v -204.424345 92.083322 274.495057
v -211.160466 92.083322 274.495057
v -247.086653 92.083322 274.495057
v -254.321808 92.083322 274.495057
v -254.321808 96.929213 274.495057
v -254.321808 176.078725 274.495057
v -254.321808 181.821991 274.495057
v -247.086653 181.821991 274.495057
v -211.160466 181.821991 274.495057
v -207.792048 181.821991 274.495057
v -206.108268 181.550954 274.495057
v -204.875602 180.810396 274.495057
v -204.424345 179.798759 274.495057
v -204.424345 179.798759 244.829197
v -204.875602 180.810396 244.829197
v -206.108268 181.550954 244.829197
v -207.792048 181.821991 244.829197
v -211.160466 181.821991 244.829197
v -247.086653 181.821991 244.829197
v -254.321808 181.821991 244.829197
v -254.321808 176.078725 244.829197
v -254.321808 96.929213 244.829197
v -254.321808 92.083322 244.829197
v -247.086653 92.083322 244.829197
v -211.160466 92.083322 244.829197
v -204.424345 92.083322 244.829197
v -204.424345 96.929213 244.829197
v -204.424345 156.448571 244.829197
v -204.424345 176.078725 244.829197
v -204.470336 176.078725 244.829197
vt 0.436583 0.896060
vt 0.436583 0.860536
vt 0.597988 0.860536
vt 0.596643 0.485702
vt 0.596643 0.455469
vt 0.436590 0.455469
vt 0.115200 0.650689
vt 0.115200 0.686031
vt 0.275776 0.686031
vt 0.436590 0.485702
vt 0.597988 0.896060
vt 0.739767 0.987237
vt 0.739767 0.956680
vt 0.394870 0.860536
vt 0.395226 0.485702
vt 0.704381 0.456325
vt 0.743110 0.456325
vt 0.743110 0.486688
vt 0.704381 0.486688
vt 0.275776 0.650689
vt 0.317274 0.650689
vt 0.935419 0.456325
vt 0.419520 0.485702
vt 0.419520 0.455469
vt 0.419370 0.860536
vt 0.395226 0.455469
vt 0.419370 0.896060
vt 0.638165 0.455469
vt 0.701000 0.956680
vt 0.292901 0.650689
vt 0.292901 0.686031
vt 0.616300 0.455469
vt 0.935419 0.486688
vt 0.394870 0.896060
vt 0.617811 0.896060
vt 0.617811 0.860536
vt 0.639860 0.860536
vt 0.639860 0.896060
vt 0.701000 0.987237
vt 0.932266 0.987237
vt 0.317274 0.686031
vt 0.073543 0.686031
vt 0.095479 0.686031
vt 0.095479 0.650689
vt 0.704381 0.037878
vt 0.743110 0.037878
vt 0.071670 0.041520
vt 0.073543 0.650689
vt 0.073543 0.861517
vt 0.096126 0.041520
vt 0.096126 0.363688
vt 0.743110 0.037878
vt 0.096126 0.380210
vt 0.096126 0.469943
vt 0.071670 0.469943
vt 0.113309 0.363688
vt 0.113309 0.380210
vt 0.935419 0.037878
vt 0.294216 0.380210
vt 0.294216 0.363688
vt 0.294216 0.041520
vt 0.316226 0.041520
vt 0.316226 0.469943
vt 0.932266 0.956680
vt 0.294216 0.469943
vt 0.071670 0.015290
vt 0.968359 0.535569
vt 0.932266 0.535569
vt 0.968359 0.956680
vt 0.932266 0.956680
vt 0.932266 0.535569
vt 0.739767 0.535569
vt 0.616300 0.485702
vt 0.638165 0.485702
vt 0.638165 0.038824
vt 0.616300 0.038824
vt 0.596643 0.038824
vt 0.935419 0.456325
vt 0.743110 0.456325
vt 0.935419 0.037878
vt 0.971477 0.037878
vt 0.971477 0.456325
vt 0.704381 0.012259
vt 0.743110 0.012259
vt 0.096126 0.015290
vt 0.274428 0.015290
vt 0.274428 0.041520
vt 0.113309 0.041520
vt 0.113309 0.015290
vt 0.294216 0.015290
vt 0.316226 0.015290
vt 0.206323 0.380210
vt 0.206323 0.469943
vt 0.186275 0.469943
vt 0.186275 0.380210
vt 0.186275 0.469943
vt 0.186275 0.380210
vt 0.394870 0.684144
vt 0.419370 0.684144
vt 0.597988 0.684144
vt 0.436583 0.684144
vt 0.617811 0.684144
vt 0.639860 0.684144
vt 0.113309 0.380210
vt 0.206323 0.469943
vt 0.206323 0.380210
vt 0.274428 0.380210
vt 0.436583 0.667605
vt 0.274428 0.380210
vt 0.274428 0.490078
vt 0.739767 0.956680
vt 0.436583 0.659338
vt 0.597988 0.659338
vt 0.597988 0.667606
vt 0.436583 0.653286
vt 0.597988 0.653286
vt 0.436583 0.651071
vt 0.597988 0.651071
vt 0.394870 0.667605
vt 0.419370 0.667605
vt 0.617810 0.667606
vt 0.639860 0.667606
vt 0.394870 0.659338
vt 0.274428 0.469943
vt 0.274428 0.469943
vt 0.294216 0.490078
vt 0.096126 0.490078
vt 0.071670 0.490078
vt 0.316226 0.490078
vt 0.739767 0.535569
vt 0.701000 0.535569
vt 0.968359 0.509787
vt 0.932266 0.509787
vt 0.274428 0.363688
vt 0.739767 0.509787
vt 0.436590 0.038824
vt 0.701000 0.509787
vt 0.968359 0.976472
vt 0.095479 0.861517
vt 0.950315 0.987237
vt 0.959336 0.985795
vt 0.115200 0.861517
vt 0.965941 0.981854
vt 0.275776 0.861517
vt 0.292901 0.861516
vt 0.419520 0.038824
vt 0.395226 0.038824
vt 0.419370 0.659338
vt 0.394870 0.653286
vt 0.419370 0.653286
vt 0.113309 0.469943
vt 0.394870 0.651070
vt 0.616300 0.013316
vt 0.317274 0.861517
vt 0.274428 0.469943
vt 0.419370 0.651071
vt 0.617810 0.653286
vt 0.935419 0.012259
vt 0.617811 0.651071
vt 0.971477 0.012259
vt 0.971477 0.475992
vt 0.969062 0.481341
vt 0.639860 0.651071
vt 0.962463 0.485256
vt 0.638165 0.013316
vt 0.953450 0.486688
vt 0.113309 0.469943
vt 0.095479 0.894420
vt 0.436590 0.013316
vt 0.073543 0.894420
vt 0.275775 0.894421
vt 0.274428 0.469943
vt 0.115200 0.894420
vt 0.113309 0.490078
vt 0.639860 0.653286
vt 0.292901 0.894421
vt 0.596643 0.013316
vt 0.419520 0.013316
vt 0.617810 0.659338
vt 0.639860 0.659338
vt 0.395226 0.013316
vt 0.317274 0.894421
vn 0.000000 1.000000 0.000000
vn 0.000000 1.000000 0.000000
vn 0.000000 1.000000 0.000000
vn 0.000000 1.000000 0.000000
vn -1.000000 0.000000 -0.000000
vn -1.000000 0.000000 -0.000000
vn -1.000000 0.000000 -0.000000
vn -1.000000 0.000000 -0.000000
vn 0.000000 -1.000000 0.000000
vn 0.000000 -1.000000 0.000000
vn 0.000000 -1.000000 0.000000
vn 0.000000 -1.000000 0.000000
vn 0.000000 0.000000 -1.000000
vn 0.000000 0.000000 -1.000000
vn 0.000000 0.000000 -1.000000
vn 0.000000 0.000000 -1.000000
vn -0.000000 0.000000 1.000000
vn -0.000000 0.000000 1.000000
vn -0.000000 0.000000 1.000000
vn -0.000000 0.000000 1.000000
vn 0.000000 -1.000000 0.000000
vn 0.000000 -1.000000 0.000000
vn 0.000000 -1.000000 0.000000
vn 0.000000 -1.000000 0.000000
vn -1.000000 0.000000 -0.000000
vn -1.000000 0.000000 -0.000000
vn -1.000000 0.000000 -0.000000
vn -1.000000 0.000000 -0.000000
vn 0.000000 1.000000 0.000000
vn 0.000000 1.000000 0.000000
vn 0.000000 1.000000 0.000000
vn 0.000000 1.000000 0.000000
vn 0.000000 1.000000 0.000000
vn 0.000000 1.000000 0.000000
vn 0.000000 1.000000 0.000000
vn 0.000000 1.000000 0.000000
vn -1.000000 0.000000 -0.000000
vn -1.000000 0.000000 -0.000000
vn -1.000000 0.000000 -0.000000
vn -1.000000 0.000000 -0.000000
vn 0.000000 -1.000000 0.000000
vn 0.000000 -1.000000 0.000000
vn 0.000000 -1.000000 0.000000
vn 0.000000 -1.000000 0.000000
vn 0.000000 1.000000 0.000000
vn 0.000000 1.000000 0.000000
vn 0.000000 1.000000 0.000000
vn 0.000000 1.000000 0.000000
vn 0.000000 1.000000 0.000000
vn 0.000000 1.000000 0.000000
vn 0.000000 -0.000000 -1.000000
vn 0.000000 -0.000000 -1.000000
vn 0.000000 -1.000000 0.000000
vn 0.000000 -1.000000 0.000000
vn 0.000000 -1.000000 0.000000
vn 0.000000 -1.000000 0.000000
vn 0.000000 -1.000000 0.000000
vn 0.000000 -1.000000 0.000000
vn -0.000000 0.000000 1.000000
vn -0.000000 0.000000 1.000000
vn 0.000000 -1.000000 0.000000
vn 0.000000 -1.000000 0.000000
vn 0.000000 -1.000000 0.000000
vn 0.000000 -1.000000 0.000000
vn 0.000000 -1.000000 0.000000
vn 0.000000 -1.000000 0.000000
vn 1.000000 0.000000 0.000000
vn 1.000000 0.000000 0.000000
vn 1.000000 0.000000 0.000000
vn 1.000000 -0.000000 0.000000
vn 1.000000 0.000000 0.000000
vn 1.000000 0.000000 0.000000
vn 1.000000 0.000000 0.000000
vn 1.000000 0.000002 0.000001
vn 1.000000 0.000000 0.000000
vn 1.000000 0.000000 0.000000
vn 1.000000 0.000000 0.000000
vn 1.000000 0.000000 0.000000
vn 1.000000 0.000000 0.000000
vn 1.000000 0.000000 0.000000
vn 0.000000 0.000000 -1.000000
vn 0.000000 0.000000 -1.000000
vn 0.000000 -0.000000 -1.000000
vn 0.000000 0.000000 -1.000000
vn 0.000000 0.000000 -1.000000
vn 0.000000 0.000000 -1.000000
vn 0.000000 0.000000 -1.000000
vn 0.000000 0.000000 -1.000000
vn 0.000000 0.000000 -1.000000
vn -1.000000 0.000000 -0.000000
vn -1.000000 0.000000 -0.000000
vn -1.000000 0.000000 -0.000000
vn -1.000000 0.000000 -0.000000
vn -1.000000 0.000000 -0.000000
vn -1.000000 0.000000 -0.000000
vn -0.000000 0.000000 1.000000
vn -0.000000 0.000000 1.000000
vn -0.000000 0.000000 1.000000
vn -0.000000 0.000000 1.000000
vn -0.000000 0.000000 1.000000
vn -0.000000 0.000000 1.000000
vn -0.000000 0.000000 1.000000
vn -0.000000 0.000000 1.000000
vn -0.000000 0.000000 1.000000
vn 1.000000 0.000000 0.000000
vn 1.000000 0.000000 0.000000
vn 1.000000 0.000000 0.000000
vn 1.000000 0.000000 0.000000
vn 1.000000 0.000000 0.000000
vn 1.000000 0.000000 0.000000
vn 1.000000 0.000000 0.000000
vn 1.000000 0.000000 0.000000
vn 0.000000 0.000000 -1.000000
vn 0.000000 0.000000 -1.000000
vn 0.000000 0.000000 -1.000000
vn 0.000000 0.000000 -1.000000
vn -1.000000 0.000000 -0.000000
vn -1.000000 0.000000 -0.000000
vn -1.000000 0.000000 -0.000000
vn -1.000000 0.000000 -0.000000
vn -1.000000 0.000000 -0.000000
vn -1.000000 0.000000 -0.000000
vn -0.000000 0.000000 1.000000
vn -0.000000 0.000000 1.000000
vn -0.000000 0.000000 1.000000
vn -0.000000 0.000000 1.000000
vn 0.000000 -1.000000 0.000000
vn 0.000000 -1.000000 0.000000
vn 0.000000 -1.000000 0.000000
vn 0.000000 -1.000000 0.000000
vn -1.000000 0.000000 -0.000000
vn -1.000000 0.000000 -0.000000
vn -1.000000 0.000000 -0.000000
vn -1.000000 0.000000 -0.000000
vn 0.000000 1.000000 0.000000
vn 0.000000 1.000000 0.000000
vn 0.000000 1.000000 0.000000
vn 0.000000 1.000000 0.000000
vn 1.000000 0.000000 0.000000
vn 1.000000 0.000000 0.000000
vn 1.000000 0.000000 0.000000
vn 1.000000 0.000000 0.000000
vn 0.000000 -1.000000 0.000000
vn 0.000000 -1.000000 0.000000
vn 0.000000 -1.000000 0.000000
vn 0.000000 -1.000000 0.000000
vn 1.000000 0.000000 0.000000
vn 1.000000 0.000000 0.000000
vn 1.000000 0.000000 0.000000
vn 1.000000 0.000000 0.000000
vn 0.000000 1.000000 0.000000
vn 0.000000 1.000000 0.000000
vn 0.000000 1.000000 0.000000
vn 0.000000 1.000000 0.000000
vn -1.000000 0.000000 -0.000000
vn -1.000000 0.000000 -0.000000
vn -1.000000 0.000000 -0.000000
vn -1.000000 0.000000 -0.000000
vn 1.000000 0.000003 0.000000
vn 1.000000 0.000001 -0.000000
vn 1.000000 0.000001 -0.000000
vn 1.000000 0.000003 0.000000
vn -0.000000 0.000000 1.000000
vn -0.000000 0.000000 1.000000
vn -0.000000 0.000000 1.000000
vn -0.000000 0.000000 1.000000
vn 0.000000 1.000000 0.000000
vn 0.000000 1.000000 0.000000
vn 0.000000 1.000000 0.000000
vn 0.000000 1.000000 0.000000
vn 0.000000 0.000000 -1.000000
vn 0.000000 0.000000 -1.000000
vn 0.000000 0.000000 -1.000000
vn 0.000000 0.000000 -1.000000
vn 0.000000 1.000000 0.000000
vn 0.000000 1.000000 0.000000
vn 0.000000 1.000000 0.000000
vn 0.000000 1.000000 0.000000
vn 0.053570 0.998564 0.000000
vn 0.327704 0.944780 0.000000
vn 0.327704 0.944780 0.000000
vn 0.053570 0.998564 0.000000
vn 0.514986 0.857199 0.000000
vn 0.514986 0.857199 0.000000
vn 0.913261 0.407374 0.000000
vn 0.995483 0.094940 0.000000
vn 0.995483 0.094940 -0.000000
vn 0.913261 0.407374 0.000000
vn 1.000000 0.000001 -0.000000
vn 0.000000 0.000000 0.000000
vn 0.995483 0.094939 0.000000
vn 0.995483 0.094940 0.000001
vn 0.995483 0.094939 0.000000
vn 0.995483 0.094939 0.000000
vn 0.053570 0.998564 0.000000
vn 0.053571 0.998564 0.000000
vn 0.053570 0.998564 0.000000
vn 0.053570 0.998564 0.000000
vn -0.000000 0.000000 1.000000
vn -0.000000 0.000000 1.000000
vn -0.000000 0.000000 1.000000
vn -0.000000 0.000000 1.000000
vn 0.000000 -0.000000 -1.000000
vn 0.000000 -0.000000 -1.000000
vn 0.000000 -0.000000 -1.000000
vn 0.000000 -0.000000 -1.000000
vn 0.327706 0.944780 0.000000
vn 0.327705 0.944780 0.000000
vn 0.514986 0.857199 0.000000
vn 0.514985 0.857199 0.000000
vn 0.913261 0.407376 0.000000
vn 0.913261 0.407375 0.000000
vn 0.913261 0.407375 0.000000
vn 0.913261 0.407375 0.000000
vn 0.327705 0.944780 0.000000
vn 0.327705 0.944780 0.000000
vn 0.514986 0.857198 0.000000
vn 0.514985 0.857199 0.000000
vn 1.000000 0.000000 0.000000
vn 1.000000 0.000841 -0.000000
vn 1.000000 0.000841 -0.000000
vn 1.000000 0.000841 -0.000000
vn 1.000000 0.000841 -0.000000
vn 1.000000 0.000841 0.000000
vn 1.000000 0.000841 0.000000
vn 1.000000 0.000841 0.000000
vn 1.000000 0.000841 0.000000
vn 1.000000 0.000002 0.000000
vn 1.000000 -0.000001 0.000004
vn 1.000000 -0.000001 0.000004
vn 0.000000 -0.000000 -1.000000
vn 0.000000 -0.000000 -1.000000
vn 0.000000 -0.000000 -1.000000
vn 0.000000 -0.000000 -1.000000
vn 1.000000 0.000000 0.000000
vn 1.000000 0.000000 0.000000
vn 0.000000 0.000000 0.000000
vn 0.000007 -1.000000 0.000000
vn 0.000007 -1.000000 0.000000
vn 0.000000 -1.000000 -0.000001
vn 0.000000 -1.000000 -0.000001
vn 0.000000 -1.000000 -0.000001
vn 0.000000 -1.000000 -0.000001
vn 1.000000 0.000002 0.000000
vn 0.000007 -1.000000 0.000000
vn 0.000007 -1.000000 0.000000
vn 0.000007 -1.000000 0.000000
vn -0.000000 -0.000000 1.000000
vn -0.000000 -0.000000 1.000000
vn -0.000000 -0.000000 1.000000
vn -0.000000 -0.000000 1.000000
vn -0.000000 -0.000000 1.000000
s 1
g pCube34
usemtl initialShadingGroup
f 105/1/1 106/2/2 117/3/3 118/11/4
s 2
f 118/4/5 119/5/6 104/6/7 105/10/8
s 3
f 121/7/9 122/8/10 101/9/11 102/20/12
s 4
f 16/12/13 34/13/14 35/29/15 4/39/16
s 5
f 38/16/17 39/17/18 13/18/19 3/19/20
s 3
f 5/21/21 8/30/22 19/31/23 20/41/24
s 2
f 3/15/25 9/23/26 37/24/27 38/26/28
s 1
f 13/14/29 14/25/30 9/27/31 3/34/32
f 11/35/33 15/36/34 16/37/35 4/38/36
s 2
f 35/28/37 36/32/38 11/73/39 4/74/40
s 3
f 17/42/41 18/43/42 12/44/43 6/48/44
s 1
f 21/98/45 22/99/46 14/25/30 13/14/29
f 116/100/47 117/3/3 106/2/2 107/101/48
f 16/37/35 15/36/34 23/102/49 24/103/50
s 4
f 24/40/51 33/64/52 34/13/14 16/12/13
s 3
f 25/49/53 26/139/54 18/43/42 17/42/41
f 122/8/10 123/142/55 100/144/56 101/9/11
f 20/41/24 19/31/23 27/145/57 28/154/58
s 5
f 13/18/19 39/17/18 40/22/59 21/33/60
s 3
f 10/168/61 26/139/54 25/49/53 2/170/62
f 99/171/63 100/144/56 123/142/55 124/173/64
f 28/154/58 27/145/57 7/176/65 1/182/66
s 9
f 41/47/67 42/50/68 85/51/69 61/53/70 30/54/71 29/55/72
f 97/56/73 92/57/74 61/53/70 85/51/69
f 62/59/75 86/60/76 43/61/77 44/62/78 32/63/79 31/65/80
s 4
f 44/67/81 45/68/82 33/64/52 32/69/83
s off
f 53/70/84 55/71/85 56/72/86 54/111/87
s 4
f 34/13/14 46/130/88 47/131/89 35/29/15
s 2
f 35/28/37 47/75/90 48/76/91 36/32/38
f 119/5/6 120/77/92 103/136/93 104/6/7
f 49/146/94 50/147/95 38/26/28 37/24/27
s 5
f 38/16/17 50/45/96 51/46/97 39/17/18
s off
f 59/52/98 60/58/99 58/78/100 57/79/101
s 5
f 52/80/102 41/81/103 29/82/104 40/22/59
s 9
f 1/66/105 7/85/106 42/50/68 41/47/67
f 124/86/107 125/87/108 98/88/109 99/89/110
f 44/62/78 43/61/77 10/90/111 2/91/112
s 4
f 2/132/113 25/133/114 45/68/82 44/67/81
f 46/130/88 45/68/82 25/133/114 17/135/115
f 47/131/89 46/130/88 17/135/115 6/137/116
s 2
f 12/153/117 48/76/91 47/75/90 6/165/118
f 102/169/119 103/136/93 120/77/92 121/177/120
f 50/147/95 49/146/94 8/178/121 5/181/122
s 5
f 5/83/123 20/84/124 51/46/97 50/45/96
f 52/80/102 51/46/97 20/84/124 28/158/125
f 41/81/103 52/80/102 28/158/125 1/160/126
s off
f 34/13/127 33/64/128 53/70/129 54/111/130
f 33/64/131 45/68/132 55/71/133 53/70/134
f 45/68/135 46/130/136 56/72/137 55/71/138
f 54/111/139 56/72/140 46/130/141 34/13/142
f 40/22/143 39/17/144 57/79/145 58/78/146
f 51/46/147 59/52/148 57/79/149 39/17/150
f 51/46/151 52/80/152 60/58/153 59/52/154
f 60/58/155 52/80/156 40/22/157 58/78/158
s 9
f 65/92/159 66/93/160 63/94/161 64/95/162
s off
f 63/94/163 87/96/164 67/97/165 64/95/166
f 91/104/167 92/57/168 64/95/169 67/97/170
f 88/105/171 66/93/172 65/92/173 68/106/174
f 65/92/175 93/107/176 94/109/177 68/106/178
s 1
f 108/108/179 109/112/180 114/113/181 115/114/182
f 109/112/180 110/115/183 113/116/184 114/113/181
s 9
f 110/115/185 111/117/186 112/118/187 113/116/188
f 112/110/187 127/124/189 96/125/190 31/65/80 80/126/191
f 29/55/72 30/54/71 73/127/192 69/128/193
f 80/126/191 31/65/80 32/63/79 81/129/194
s 1
f 72/119/195 76/120/196 22/99/46 21/98/45
f 115/114/182 116/100/47 107/101/48 108/108/179
f 24/103/50 23/102/49 77/121/197 82/122/198
s 5
f 21/33/60 40/22/59 29/82/104 69/161/199 70/162/200 71/164/201 72/166/202
s 4
f 81/138/203 32/69/83 33/64/52 24/40/51 82/140/204 83/141/205 84/143/206
s 1
f 72/119/195 71/123/207 75/148/208 76/120/196
f 71/123/207 70/149/209 74/150/210 75/148/208
s 9
f 70/149/211 69/152/193 73/156/192 74/150/212
f 79/157/213 80/159/191 81/163/194 84/175/214
s 1
f 77/121/197 78/179/215 83/180/216 82/122/198
f 78/179/215 79/157/217 84/175/218 83/180/216
s 9
f 125/87/108 126/134/219 97/56/73 98/88/109
s off
f 67/97/220 87/96/221 90/151/222 91/104/223
f 94/109/224 95/155/225 88/105/226 68/106/227
s 9
f 98/88/109 97/56/73 85/51/69 42/50/68
f 99/89/110 98/88/109 42/50/68 7/85/106
s 3
f 7/176/65 27/145/57 100/144/56 99/171/63
f 101/9/11 100/144/56 27/145/57 19/31/23
f 102/20/12 101/9/11 19/31/23 8/30/22
s 2
f 8/178/121 49/146/94 103/136/93 102/169/119
f 104/6/7 103/136/93 49/146/94 37/24/27
f 105/10/8 104/6/7 37/24/27 9/23/26
s 1
f 9/27/31 14/25/30 106/2/2 105/1/1
f 107/101/48 106/2/2 14/25/30 22/99/46
f 108/108/179 107/101/48 22/99/46 76/120/196
f 76/120/196 75/148/208 109/112/180 108/108/179
f 75/148/208 74/150/210 110/115/183 109/112/180
s 9
f 74/150/212 73/156/192 111/117/186 110/115/185
f 113/116/188 112/118/187 80/159/191 79/157/213
s 1
f 114/113/181 113/116/184 79/157/217 78/179/215
f 115/114/182 114/113/181 78/179/215 77/121/197
f 23/102/49 116/100/47 115/114/182 77/121/197
f 15/36/34 117/3/3 116/100/47 23/102/49
f 118/11/4 117/3/3 15/36/34 11/35/33
s 2
f 36/32/38 119/5/6 118/4/5 11/73/39
f 36/32/38 48/76/91 120/77/92 119/5/6
f 121/177/120 120/77/92 48/76/91 12/153/117
s 3
f 18/43/42 122/8/10 121/7/9 12/44/43
f 26/139/54 123/142/55 122/8/10 18/43/42
f 124/173/64 123/142/55 26/139/54 10/168/61
s 9
f 43/61/77 125/87/108 124/86/107 10/90/111
f 86/60/76 126/134/219 125/87/108 43/61/77
f 62/59/75 93/107/228 126/134/219 86/60/76
f 126/134/219 93/107/228 65/92/159 64/95/162 92/57/74 97/56/73
f 61/53/70 92/57/74 89/167/229 30/54/230
s off
f 92/57/231 91/104/232 90/151/233 89/167/234
s 9
f 93/107/228 62/59/75 31/65/235 96/125/236
s 17
f 96/125/237 127/124/238 128/172/239
s off
f 63/94/240 89/167/241 90/151/242 87/96/243
s 9
f 111/174/186 89/167/244 63/94/161 66/93/160 127/124/189 112/110/187
s 17
f 128/172/239 127/124/238 66/93/245 88/105/246 95/155/247
s off
f 94/109/248 93/107/249 96/125/250 128/172/251 95/155/252
s 9
f 73/127/192 30/54/71 89/167/244 111/174/186
