# This file uses meters as units for non-parametric coordinates.

mtllib Cabinet door UV.mtl
g default
v -180.870054 176.078725 345.359466
v -180.870054 176.078725 308.886416
v -180.870054 96.929213 345.359466
v -180.870054 96.929213 308.886416
v -180.870054 159.501026 345.359466
v -180.870054 159.501026 308.886416
v -180.870054 176.078725 328.760834
v -180.870054 159.501026 328.760834
v -180.870054 159.501026 325.069556
v -180.870054 176.078725 325.069556
v -181.364347 159.501026 328.760834
v -181.364347 159.501026 325.069556
v -180.870054 179.798759 345.359466
v -181.182797 180.810396 345.359466
v -181.182797 180.810396 308.886416
v -180.870054 179.798759 308.886416
v -180.870054 156.448571 345.359466
v -180.870054 156.448571 308.886416
v -181.373977 176.078725 328.760834
v -181.373977 176.078725 325.069556
v -180.870038 176.078714 342.224337
v -181.373977 176.078714 342.224337
v -181.364347 159.501026 342.224337
v -180.870054 159.501026 342.224337
v -180.870054 159.501026 312.529834
v -181.364347 159.501026 312.529833
v -181.373977 176.078714 312.529833
v -180.870038 176.078714 312.529833
v -180.870054 156.448571 342.166966
v -180.870054 96.929213 342.166966
v -181.182797 180.810396 342.166966
v -180.870054 179.798759 342.166966
v -180.870054 179.798759 312.529834
v -181.182797 180.810396 312.529834
v -180.870054 96.929213 312.529834
v -180.870054 156.448571 312.529834
v -181.884579 96.929213 308.886416
v -181.884579 156.448571 308.886416
v -181.884579 96.929213 345.359466
v -181.884579 96.929213 342.166966
v -181.884579 159.501026 345.359466
v -181.884579 156.448571 345.359466
v -181.884579 180.810396 345.359466
v -181.884579 180.810396 342.166966
v -181.884579 179.798759 345.359466
v -181.884579 179.798759 308.886416
v -181.884579 180.810396 308.886416
v -181.884579 176.078725 345.359466
v -181.884579 176.078725 308.886416
v -181.884579 159.501026 308.886416
v -181.884579 96.929213 312.529834
v -181.884579 180.810396 312.529834
v -182.904693 176.078725 345.359466
v -182.904693 176.078725 308.886416
v -182.904693 96.929213 345.359466
v -182.904693 96.929213 308.886416
v -182.904693 159.501026 345.359466
v -182.904693 159.501026 308.886416
v -182.904693 176.078725 328.760834
v -182.904693 159.501026 328.760834
v -182.904693 159.501026 325.069556
v -182.904693 176.078725 325.069556
v -182.404744 159.501026 328.760834
v -182.404744 159.501026 325.069556
v -182.904693 179.798759 345.359466
v -182.904693 180.810396 345.359466
v -182.904693 180.810396 308.886416
v -182.904693 179.798759 308.886416
v -182.904693 156.448571 345.359466
v -182.904693 156.448571 308.886416
v -182.395064 176.078725 328.760834
v -182.395064 176.078725 325.069556
v -182.904693 176.078714 342.224337
v -182.395064 176.078714 342.224337
v -182.404744 159.501026 342.224337
v -182.904693 159.501026 342.224337
v -182.904693 159.501026 312.529836
v -182.404744 159.501026 312.529833
v -182.395064 176.078714 312.529833
v -182.904693 176.078714 312.529833
v -182.904693 156.448571 342.166966
v -182.904693 96.929213 342.166966
v -182.904693 180.810396 342.166966
v -182.904693 179.798759 342.166966
v -182.904693 179.798759 312.529834
v -182.904693 180.810396 312.529834
v -182.904693 96.929213 312.529834
v -182.904693 156.448571 312.529834
vt 0.075845 0.605501
vt 0.075168 0.634185
vt 0.745157 0.933506
vt 0.159330 0.933540
vt 0.038186 0.634185
vt 0.038186 0.605501
vt 0.277530 0.634185
vt 0.277530 0.789965
vt 0.233987 0.789965
vt 0.233987 0.634185
vt 0.075168 0.634185
vt 0.233987 0.634185
vt 0.159330 0.939622
vt 0.277530 0.789965
vt 0.277530 0.634185
vt 0.745157 0.939587
vt 0.075845 0.834428
vt 0.312533 0.933532
vt 0.327230 0.933531
vt 0.327230 0.939612
vt 0.075845 0.824922
vt 0.312534 0.939613
vt 0.426410 0.824922
vt 0.425409 0.834428
vt 0.426410 0.789965
vt 0.468430 0.789965
vt 0.464712 0.933522
vt 0.471762 0.933522
vt 0.471763 0.939603
vt 0.464712 0.939604
vt 0.520984 0.935394
vt 0.535681 0.935393
vt 0.535681 0.939600
vt 0.468430 0.824922
vt 0.425409 0.046199
vt 0.520985 0.939600
vt 0.518648 0.933519
vt 0.518648 0.939600
vt 0.688884 0.935384
vt 0.691221 0.933509
vt 0.691222 0.939591
vt 0.688885 0.939591
vt 0.510055 0.933520
vt 0.510055 0.939601
vt 0.699814 0.933509
vt 0.699814 0.939590
vt 0.738106 0.933507
vt 0.738107 0.939588
vt 0.176119 0.933539
vt 0.176119 0.939621
vt 0.672096 0.935385
vt 0.672096 0.939592
vt 0.569843 0.606002
vt 0.745158 0.945702
vt 0.882639 0.945694
vt 0.531708 0.606002
vt 0.531708 0.634692
vt 0.569843 0.634692
vt 0.776273 0.634692
vt 0.731780 0.634692
vt 0.731780 0.790506
vt 0.776273 0.790506
vt 0.569497 0.634692
vt 0.731780 0.634692
vt 0.312534 0.945727
vt 0.327231 0.945726
vt 0.776273 0.790506
vt 0.776273 0.634692
vt 0.464712 0.945718
vt 0.471763 0.945718
vt 0.570189 0.834979
vt 0.520985 0.945715
vt 0.535681 0.945714
vt 0.927378 0.834979
vt 0.928036 0.825470
vt 0.569843 0.825470
vt 0.971338 0.825470
vt 0.971338 0.790506
vt 0.518648 0.945715
vt 0.688885 0.945706
vt 0.691222 0.945705
vt 0.510055 0.945716
vt 0.699815 0.945705
vt 0.738107 0.945703
vt 0.176119 0.945735
vt 0.928036 0.790506
vt 0.672096 0.945706
vt 0.927378 0.046581
vt 0.426410 0.605501
vt 0.075845 0.046199
vt 0.233987 0.789965
vt 0.075168 0.789965
vt 0.426410 0.634185
vt 0.426410 0.789965
vt 0.038186 0.046199
vt 0.038185 0.834428
vt 0.038185 0.824922
vt 0.468430 0.834428
vt 0.468430 0.605501
vt 0.468430 0.046199
vt 0.468430 0.634185
vt 0.426410 0.634185
vt 0.075169 0.789965
vt 0.038186 0.789965
vt 0.570189 0.046581
vt 0.927422 0.606002
vt 0.569843 0.790506
vt 0.731780 0.790506
vt 0.928036 0.634692
vt 0.927422 0.790506
vt 0.531708 0.046581
vt 0.531708 0.834979
vt 0.531708 0.825470
vt 0.971338 0.834979
vt 0.971338 0.606002
vt 0.971338 0.046581
vt 0.971338 0.634692
vt 0.927422 0.634692
vt 0.531708 0.790506
vt 0.569497 0.790506
vt 0.159330 0.945736
vt 0.882639 0.939580
vt 0.882639 0.933498
vn 1.000000 0.000000 0.000000
vn 1.000000 -0.000000 0.000001
vn 1.000000 -0.000000 0.000002
vn 1.000000 0.000000 0.000000
vn 1.000000 0.000000 0.000000
vn 1.000000 0.000002 0.000000
vn 1.000000 0.000002 0.000000
vn 1.000000 0.000000 0.000000
vn 0.000000 1.000000 0.000000
vn 0.000000 1.000000 0.000000
vn 0.000000 1.000000 0.000000
vn 0.000000 1.000000 0.000000
vn 0.000000 0.000000 -1.000000
vn 0.000000 0.000000 -1.000000
vn 0.000000 0.000000 -1.000000
vn 0.000000 0.000000 -1.000000
vn 0.955388 0.295353 0.000000
vn 0.997876 0.065148 0.000000
vn 0.997826 0.065909 -0.000000
vn 0.955388 0.295353 0.000000
vn 1.000000 0.000002 -0.000000
vn 1.000000 0.000002 -0.000002
vn 0.997823 0.065953 -0.000002
vn 1.000000 0.000000 0.000000
vn 1.000000 0.000000 0.000000
vn 1.000000 0.000000 0.000000
vn 1.000000 0.000581 -0.000000
vn 1.000000 0.000581 -0.000000
vn 1.000000 0.000581 -0.000000
vn 1.000000 0.000581 -0.000000
vn 1.000000 0.000581 0.000000
vn 1.000000 0.000581 0.000000
vn 1.000000 0.000581 0.000000
vn 1.000000 0.000581 0.000000
vn 1.000000 0.000000 0.000000
vn 0.955388 0.295353 0.000000
vn 0.997792 0.066420 0.000002
vn 0.955388 0.295354 0.000000
vn 1.000000 0.000000 0.000000
vn 1.000000 0.000000 0.000000
vn 1.000000 -0.000000 -0.000002
vn 1.000000 -0.000000 -0.000001
vn 1.000000 -0.000000 0.000003
vn 1.000000 -0.000000 0.000003
vn 0.000000 0.000000 -1.000000
vn 0.000000 0.000000 -1.000000
vn 0.000000 0.000000 -1.000000
vn 0.000000 0.000000 -1.000000
vn 1.000000 -0.000000 -0.000002
vn 1.000000 -0.000000 -0.000002
vn 0.000000 -1.000000 -0.000001
vn 0.000000 -1.000000 -0.000001
vn 0.000000 -1.000000 -0.000001
vn 0.000000 -1.000000 -0.000001
vn 1.000000 0.000002 0.000000
vn -0.000000 -1.000000 0.000001
vn -0.000000 -1.000000 0.000001
vn -0.000000 -1.000000 0.000001
vn -0.000000 -1.000000 0.000001
vn -0.000001 0.000000 1.000000
vn -0.000001 0.000000 1.000000
vn -0.000001 0.000000 1.000000
vn -0.000001 0.000000 1.000000
vn 1.000000 0.000002 0.000002
vn -0.000000 1.000000 -0.000000
vn -0.000000 1.000000 -0.000000
vn -0.000000 1.000000 -0.000000
vn -0.000000 1.000000 -0.000000
vn -0.000000 0.000000 1.000000
vn -0.000000 0.000000 1.000000
vn -0.000000 0.000000 1.000000
vn -0.000000 0.000000 1.000000
vn 0.000000 0.000000 -1.000000
vn 0.000000 0.000000 -1.000000
vn 0.000000 0.000000 -1.000000
vn 0.000000 0.000000 -1.000000
vn 0.000000 -1.000000 0.000000
vn 0.000000 -1.000000 0.000000
vn 0.000000 -1.000000 0.000000
vn 0.000000 -1.000000 0.000000
vn -0.000000 0.000000 1.000000
vn -0.000000 0.000000 1.000000
vn -0.000000 0.000000 1.000000
vn -0.000000 0.000000 1.000000
vn 0.000000 1.000000 0.000000
vn 0.000000 1.000000 0.000000
vn 0.000000 1.000000 0.000000
vn 0.000000 1.000000 0.000000
vn -0.000000 0.000000 1.000000
vn -0.000000 0.000000 1.000000
vn -0.000000 0.000000 1.000000
vn -0.000000 0.000000 1.000000
vn 0.000000 0.000000 -1.000000
vn 0.000000 0.000000 -1.000000
vn 0.000000 0.000000 -1.000000
vn 0.000000 0.000000 -1.000000
vn -0.000000 0.000000 1.000000
vn -0.000000 0.000000 1.000000
vn -0.000000 0.000000 1.000000
vn -0.000000 0.000000 1.000000
vn 0.000000 0.000000 -1.000000
vn 0.000000 0.000000 -1.000000
vn 0.000000 0.000000 -1.000000
vn 0.000000 0.000000 -1.000000
vn -0.000000 0.000000 1.000000
vn -0.000000 0.000000 1.000000
vn -0.000000 0.000000 1.000000
vn -0.000000 0.000000 1.000000
vn 0.000000 0.000000 -1.000000
vn 0.000000 0.000000 -1.000000
vn 0.000000 0.000000 -1.000000
vn 0.000000 0.000000 -1.000000
vn 0.000000 -1.000000 0.000000
vn 0.000000 -1.000000 0.000000
vn 0.000000 -1.000000 0.000000
vn 0.000000 -1.000000 0.000000
vn 0.000000 1.000000 0.000000
vn 0.000000 1.000000 0.000000
vn 0.000000 1.000000 0.000000
vn 0.000000 1.000000 0.000000
vn 0.000000 1.000000 0.000000
vn 0.000000 1.000000 0.000000
vn 0.000000 1.000000 0.000000
vn 0.000000 1.000000 0.000000
vn 0.000000 -1.000000 0.000000
vn 0.000000 -1.000000 0.000000
vn 0.000000 -1.000000 0.000000
vn 0.000000 -1.000000 0.000000
vn -0.000000 0.000000 1.000000
vn -0.000000 0.000000 1.000000
vn -0.000000 0.000000 1.000000
vn -0.000000 0.000000 1.000000
vn 0.000000 0.000000 -1.000000
vn 0.000000 0.000000 -1.000000
vn 0.000000 0.000000 -1.000000
vn 0.000000 0.000000 -1.000000
vn -1.000000 0.000000 -0.000000
vn -1.000000 0.000000 -0.000000
vn -1.000000 0.000000 -0.000000
vn -1.000000 0.000000 -0.000000
vn -1.000000 0.000000 -0.000000
vn -1.000000 0.000000 -0.000000
vn -1.000000 0.000000 -0.000000
vn -1.000000 0.000000 -0.000000
vn 0.000000 1.000000 0.000000
vn 0.000000 1.000000 0.000000
vn 0.000000 1.000000 0.000000
vn 0.000000 1.000000 0.000000
vn 0.000000 0.000000 -1.000000
vn 0.000000 0.000000 -1.000000
vn 0.000000 0.000000 -1.000000
vn 0.000000 0.000000 -1.000000
vn -1.000000 0.000000 -0.000000
vn -1.000000 0.000000 -0.000000
vn -1.000000 0.000000 -0.000000
vn -1.000000 0.000000 -0.000000
vn -1.000000 0.000000 -0.000000
vn -1.000000 0.000000 -0.000000
vn -1.000000 0.000000 -0.000000
vn -1.000000 0.000000 -0.000000
vn -1.000000 0.000000 -0.000000
vn -1.000000 0.000000 -0.000000
vn -1.000000 0.000584 -0.000000
vn -1.000000 0.000584 -0.000000
vn -1.000000 0.000584 -0.000000
vn -1.000000 0.000584 -0.000000
vn -1.000000 0.000584 0.000000
vn -1.000000 0.000584 0.000000
vn -1.000000 0.000584 0.000000
vn -1.000000 0.000584 0.000000
vn -1.000000 0.000000 -0.000000
vn -1.000000 0.000000 -0.000000
vn -1.000000 0.000000 -0.000000
vn -1.000000 0.000000 -0.000000
vn -1.000000 0.000000 -0.000000
vn -1.000000 0.000000 -0.000000
vn -1.000000 0.000000 -0.000000
vn -1.000000 0.000000 -0.000000
vn -1.000000 0.000000 -0.000000
vn -1.000000 0.000000 -0.000000
vn 0.000000 0.000000 -1.000000
vn 0.000000 0.000000 -1.000000
vn 0.000000 0.000000 -1.000000
vn 0.000000 0.000000 -1.000000
vn -1.000000 0.000000 -0.000000
vn -1.000000 0.000000 -0.000000
vn 0.000000 -1.000000 -0.000001
vn 0.000000 -1.000000 -0.000001
vn 0.000000 -1.000000 -0.000001
vn 0.000000 -1.000000 -0.000001
vn -1.000000 0.000000 -0.000000
vn -0.000000 -1.000000 0.000001
vn -0.000000 -1.000000 0.000001
vn -0.000000 -1.000000 0.000001
vn -0.000000 -1.000000 0.000001
vn 0.000003 0.000000 1.000000
vn 0.000003 0.000000 1.000000
vn 0.000003 0.000000 1.000000
vn 0.000003 0.000000 1.000000
vn -1.000000 0.000000 -0.000000
vn 0.000000 1.000000 0.000000
vn 0.000000 1.000000 0.000000
vn 0.000000 1.000000 0.000000
vn 0.000000 1.000000 0.000000
vn -0.000000 0.000000 1.000000
vn -0.000000 0.000000 1.000000
vn -0.000000 0.000000 1.000000
vn -0.000000 0.000000 1.000000
vn 0.000000 0.000000 -1.000000
vn 0.000000 0.000000 -1.000000
vn 0.000000 -1.000000 0.000000
vn 0.000000 -1.000000 0.000000
vn -0.000000 0.000000 1.000000
vn -0.000000 0.000000 1.000000
vn 0.000000 1.000000 0.000000
vn 0.000000 1.000000 0.000000
vn -0.000000 0.000000 1.000000
vn -0.000000 0.000000 1.000000
vn 0.000000 0.000000 -1.000000
vn 0.000000 0.000000 -1.000000
vn -0.000000 0.000000 1.000000
vn -0.000000 0.000000 1.000000
vn 0.000000 0.000000 -1.000000
vn 0.000000 0.000000 -1.000000
vn -0.000000 0.000000 1.000000
vn -0.000000 0.000000 1.000000
vn 0.000000 0.000000 -1.000000
vn 0.000000 0.000000 -1.000000
vn 0.000000 -1.000000 0.000000
vn 0.000000 -1.000000 0.000000
vn 0.000000 1.000000 0.000000
vn 0.000000 1.000000 0.000000
vn 0.000000 1.000000 0.000000
vn 0.000000 1.000000 0.000000
vn 0.000000 -1.000000 0.000000
vn 0.000000 -1.000000 0.000000
vn -0.000000 0.000000 1.000000
vn -0.000000 0.000000 1.000000
vn 0.000000 0.000000 -1.000000
vn 0.000000 0.000000 -1.000000
s 1
g pCube10
usemtl initialShadingGroup
f 29/1/1 24/2/2 5/5/3 17/6/4
f 9/7/5 10/8/6 7/9/7 8/10/8
s off
f 23/11/9 24/2/10 8/10/11 11/12/12
f 20/14/13 10/8/14 9/7/15 12/15/16
s 1
f 31/17/17 32/21/18 33/23/19 34/24/20
f 33/23/19 28/25/21 2/26/22 16/34/23
f 35/35/24 36/89/25 29/1/1 30/90/26
s off
f 11/12/27 19/91/28 22/92/29 23/11/30
f 26/93/31 27/94/32 20/14/33 12/15/34
s 1
f 30/90/26 29/1/1 17/6/4 3/95/35
f 14/96/36 13/97/37 32/21/18 31/17/17
f 34/24/20 33/23/19 16/34/23 15/98/38
f 18/99/39 36/89/25 35/35/24 4/100/40
f 6/101/41 25/102/42 36/89/25 18/99/39
f 36/89/25 25/102/42 9/7/5 8/10/8 24/2/2 29/1/1
f 5/5/3 24/2/2 21/103/43 1/104/44
s off
f 24/2/45 23/11/46 22/92/47 21/103/48
s 1
f 25/102/42 6/101/41 2/26/49 28/25/50
s off
f 7/9/51 21/103/52 22/92/53 19/91/54
s 1
f 32/21/18 21/103/55 7/9/7 10/8/6 28/25/21 33/23/19
s off
f 28/25/56 10/8/57 20/14/58 27/94/59
f 26/93/60 25/102/61 28/25/62 27/94/63
s 1
f 13/97/37 1/104/64 21/103/55 32/21/18
s off
f 26/93/65 12/15/66 9/7/67 25/102/68
f 19/91/69 11/12/70 8/10/71 7/9/72
s 5
f 18/3/73 4/123/74 37/122/75 38/16/76
s 6
f 30/18/77 3/19/78 39/20/79 40/22/80
s 7
f 17/27/81 5/28/82 41/29/83 42/30/84
s 8
f 14/31/85 31/32/86 44/33/87 43/36/88
s 9
f 13/37/89 14/31/90 43/36/91 45/38/92
s 10
f 15/39/93 16/40/94 46/41/95 47/42/96
s 11
f 1/43/97 13/37/98 45/38/99 48/44/100
s 12
f 16/40/101 2/45/102 49/46/103 46/41/104
s 13
f 3/19/105 17/27/106 42/30/107 39/20/108
s 14
f 6/47/109 18/3/110 38/16/111 50/48/112
s 15
f 35/49/113 30/18/114 40/22/115 51/50/116
s 16
f 31/32/117 34/51/118 52/52/119 44/33/120
s 17
f 34/51/121 15/39/122 47/42/123 52/52/124
s 18
f 4/4/125 35/49/126 51/50/127 37/13/128
s 19
f 5/28/129 1/43/130 48/44/131 41/29/132
s 20
f 2/45/133 6/47/134 50/48/135 49/46/136
s 21
f 81/53/137 69/56/138 57/57/139 76/58/140
f 61/59/141 60/60/142 59/61/143 62/62/144
s off
f 75/63/145 63/64/146 60/60/147 76/58/148
f 72/67/149 64/68/150 61/59/151 62/62/152
s 21
f 83/71/153 86/74/154 85/75/155 84/76/156
f 85/75/155 68/77/157 54/78/158 80/86/159
f 87/88/160 82/105/161 81/53/137 88/106/162
s off
f 63/64/163 75/63/164 74/107/165 71/108/166
f 78/109/167 64/68/168 72/67/169 79/110/170
s 21
f 82/105/161 55/111/171 69/56/138 81/53/137
f 66/112/172 83/71/153 84/76/156 65/113/173
f 86/74/154 67/114/174 68/77/157 85/75/155
f 70/115/175 56/116/176 87/88/160 88/106/162
f 58/117/177 70/115/175 88/106/162 77/118/178
f 88/106/162 81/53/137 76/58/140 60/60/142 61/59/141 77/118/178
f 57/57/139 53/119/179 73/120/180 76/58/140
s off
f 76/58/181 73/120/182 74/107/183 75/63/184
s 21
f 77/118/178 80/86/185 54/78/186 58/117/177
s off
f 59/61/187 71/108/188 74/107/189 73/120/190
s 21
f 84/76/156 85/75/155 80/86/159 62/62/144 59/61/143 73/120/191
s off
f 80/86/192 79/110/193 72/67/194 62/62/195
f 78/109/196 79/110/197 80/86/198 77/118/199
s 21
f 65/113/173 84/76/156 73/120/191 53/119/200
s off
f 78/109/201 77/118/202 61/59/203 64/68/204
f 71/108/205 59/61/206 60/60/207 63/64/208
s 5
f 70/54/209 38/16/76 37/122/75 56/55/210
s 6
f 82/65/211 40/22/80 39/20/79 55/66/212
s 7
f 69/69/213 42/30/84 41/29/83 57/70/214
s 8
f 66/72/215 43/36/88 44/33/87 83/73/216
s 9
f 65/79/217 45/38/92 43/36/91 66/72/218
s 10
f 67/80/219 47/42/96 46/41/95 68/81/220
s 11
f 53/82/221 48/44/100 45/38/99 65/79/222
s 12
f 68/81/223 46/41/104 49/46/103 54/83/224
s 13
f 55/66/225 39/20/108 42/30/107 69/69/226
s 14
f 58/84/227 50/48/112 38/16/111 70/54/228
s 15
f 87/85/229 51/50/116 40/22/115 82/65/230
s 16
f 83/73/231 44/33/120 52/52/119 86/87/232
s 17
f 86/87/233 52/52/124 47/42/123 67/80/234
s 18
f 56/121/235 37/13/128 51/50/127 87/85/236
s 19
f 57/70/237 41/29/132 48/44/131 53/82/238
s 20
f 54/83/239 49/46/136 50/48/135 58/84/240
