# This file uses meters as units for non-parametric coordinates.

mtllib Empty chest UV.mtl
g default
v -204.424345 92.083322 349.636150
v -204.424345 92.083322 304.607610
v -254.321808 181.821991 349.636150
v -254.321808 181.821991 304.607610
v -254.321808 92.083322 349.636150
v -254.321808 92.083322 304.607610
v -204.424345 92.083322 345.133279
v -254.321808 92.083322 345.133279
v -254.321808 181.821991 345.133279
v -204.424345 92.083322 308.660164
v -254.321808 181.821991 308.660164
v -254.321808 92.083322 308.660164
v -247.086653 181.821991 349.636150
v -247.086653 181.821991 345.133215
v -247.086653 181.821991 308.660164
v -247.086653 181.821991 304.607610
v -247.086653 92.083322 304.607610
v -247.086653 92.083322 308.660164
v -247.086653 92.083322 345.133279
v -247.086653 92.083322 349.636150
v -211.160466 181.821991 349.636150
v -211.160466 181.821991 345.133215
v -211.160466 181.821991 308.660164
v -211.160466 181.821991 304.607610
v -211.160466 92.083322 304.607610
v -211.160466 92.083322 308.660164
v -211.160466 92.083322 345.133215
v -211.160466 92.083322 349.636150
v -204.424345 176.078725 349.636150
v -204.424321 176.078725 345.133215
v -204.424321 176.078725 308.660164
v -204.424345 176.078725 304.607610
v -211.160466 176.078725 304.607610
v -247.086653 176.078725 304.607610
v -254.321808 176.078725 304.607610
v -254.321808 176.078725 308.660164
v -254.321808 176.078725 345.133279
v -254.321808 176.078725 349.636150
v -247.086653 176.078725 349.636150
v -211.160466 176.078725 349.636150
v -204.424345 96.929213 349.636150
v -204.424345 96.929213 345.133215
v -204.424345 96.929213 308.660164
v -204.424345 96.929213 304.607610
v -211.160466 96.929213 304.607610
v -247.086653 96.929213 304.607610
v -254.321808 96.929213 304.607610
v -254.321808 96.929213 308.660164
v -254.321808 96.929213 345.133215
v -254.321808 96.929213 349.636150
v -247.086653 96.929213 349.636150
v -211.160466 96.929213 349.636150
v -211.160466 176.078725 305.695045
v -247.086653 176.078725 305.695045
v -211.160466 96.929213 305.695045
v -247.086653 96.929213 305.695045
v -247.086653 176.078725 348.548651
v -211.160466 176.078725 348.548651
v -247.086653 96.929213 348.548651
v -211.160466 96.929213 348.548651
v -204.424345 159.501026 345.133215
v -204.424345 159.501026 308.660164
v -204.424345 179.798759 349.636150
v -204.875602 180.810396 349.636150
v -206.108268 181.550954 349.636150
v -207.792048 181.821991 349.636150
v -204.424321 179.798759 345.133279
v -204.875602 180.810396 345.133279
v -206.108268 181.550954 345.133279
v -207.792048 181.821991 345.133279
v -207.792048 181.821991 308.660164
v -206.108268 181.550954 308.660164
v -204.875602 180.810396 308.660164
v -204.424321 179.798759 308.660164
v -204.424345 179.798759 304.607610
v -207.792048 181.821991 304.607610
v -206.108268 181.550954 304.607610
v -204.875602 180.810396 304.607610
v -204.424345 156.448571 345.133215
v -204.424345 156.448571 308.660164
v -204.424321 96.929213 341.950441
v -204.424368 92.083344 341.950441
v -211.160466 92.083322 341.950441
v -247.086653 92.083322 341.950441
v -254.321808 92.083322 341.950441
v -254.321808 96.929213 341.950441
v -254.321808 176.078725 341.950441
v -254.321808 181.821991 341.950441
v -247.086653 181.821991 341.950441
v -211.160466 181.821991 341.950441
v -207.792048 181.821991 341.950441
v -206.108268 181.550954 341.950441
v -204.875602 180.810396 341.950441
v -204.875602 180.810396 312.339397
v -206.108268 181.550954 312.339397
v -207.792048 181.821991 312.339397
v -211.160466 181.821991 312.339397
v -247.086653 181.821991 312.339397
v -254.321808 181.821991 312.339397
v -254.321808 176.078725 312.339397
v -254.321808 96.929213 312.339397
v -254.321808 92.083322 312.339397
v -247.086653 92.083322 312.339397
v -211.160466 92.083322 312.339397
v -204.424345 92.083322 312.339397
v -204.424345 96.929213 312.339397
v -250.418215 156.448581 341.950441
v -250.418215 159.501048 341.950419
v -250.418215 159.501026 345.133215
v -250.418215 156.448571 345.133215
v -250.418215 180.810396 341.950441
v -250.418215 179.798759 341.950441
v -250.418215 179.798759 312.339397
v -250.418215 180.810396 312.339397
v -250.418215 176.078714 312.339397
v -250.418215 176.078725 308.660164
v -250.418215 179.798759 308.660164
v -250.418215 96.929213 312.339397
v -250.418215 156.448581 312.339397
v -250.418215 96.929213 341.950441
v -250.418215 96.929213 345.133215
v -250.418215 180.810396 345.133279
v -250.418215 179.798759 345.133279
v -250.418215 180.810396 308.660164
v -250.418215 156.448571 308.660164
v -250.418215 96.929213 308.660164
v -250.418215 159.501026 308.660164
v -250.418215 159.501048 312.339397
v -250.418215 176.078725 341.950441
v -250.418215 176.078725 345.133215
vt 0.067284 0.628810
vt 0.067284 0.596631
vt 0.213220 0.596634
vt 0.213220 0.628813
vt 0.029406 0.596630
vt 0.051598 0.596631
vt 0.051597 0.628809
vt 0.029405 0.628809
vt 0.231353 0.628813
vt 0.231353 0.596634
vt 0.251326 0.596635
vt 0.251325 0.628813
vt 0.029409 0.436848
vt 0.051601 0.436848
vt 0.213224 0.436851
vt 0.067287 0.436849
vt 0.231356 0.436852
vt 0.251329 0.436852
vt 0.067288 0.421868
vt 0.067288 0.414349
vt 0.213224 0.414352
vt 0.213224 0.421870
vt 0.067288 0.408569
vt 0.213224 0.408572
vt 0.029409 0.421867
vt 0.051601 0.421867
vt 0.231357 0.421871
vt 0.251329 0.421871
vt 0.029409 0.414348
vt 0.051601 0.414349
vt 0.029410 0.408568
vt 0.051602 0.408569
vt 0.231357 0.414352
vt 0.251329 0.414352
vt 0.231357 0.408572
vt 0.251330 0.408572
vt 0.322633 0.349185
vt 0.322632 0.327857
vt 0.468620 0.327857
vt 0.468620 0.349185
vt 0.506512 0.349185
vt 0.484312 0.349185
vt 0.484312 0.327857
vt 0.506512 0.327857
vt 0.284514 0.327857
vt 0.304493 0.327857
vt 0.304493 0.349185
vt 0.284514 0.349185
vt 0.284513 0.033933
vt 0.304493 0.033933
vt 0.322632 0.033933
vt 0.468619 0.033933
vt 0.484311 0.033933
vt 0.506511 0.033933
vt 0.304493 0.015938
vt 0.284513 0.015938
vt 0.468619 0.015937
vt 0.322632 0.015938
vt 0.484311 0.015937
vt 0.506511 0.015937
vt 0.528372 0.327028
vt 0.559983 0.327028
vt 0.559983 0.348157
vt 0.528372 0.348157
vt 0.716945 0.327028
vt 0.716945 0.348157
vt 0.528372 0.035846
vt 0.559983 0.035846
vt 0.559983 0.035846
vt 0.716945 0.035846
vt 0.716945 0.327028
vt 0.559983 0.327028
vt 0.716945 0.035846
vt 0.746375 0.035846
vt 0.746375 0.327028
vt 0.528372 0.018018
vt 0.559983 0.018018
vt 0.716945 0.018018
vt 0.746375 0.018018
vt 0.746375 0.340713
vt 0.744404 0.344435
vt 0.739018 0.347160
vt 0.731662 0.348157
vt 0.218221 0.349845
vt 0.218021 0.329031
vt 0.248988 0.330093
vt 0.248810 0.350626
vt 0.059340 0.350577
vt 0.059268 0.329754
vt 0.030435 0.037285
vt 0.059323 0.037115
vt 0.030364 0.330188
vt 0.062696 0.324469
vt 0.063010 0.042004
vt 0.215989 0.042770
vt 0.214361 0.324123
vt 0.219444 0.037493
vt 0.250533 0.038744
vt 0.030344 0.019783
vt 0.059251 0.019590
vt 0.219469 0.019950
vt 0.250710 0.021197
vt 0.030639 0.343452
vt 0.044799 0.350663
vt 0.037737 0.349663
vt 0.032579 0.347029
vt 0.321682 0.625222
vt 0.321685 0.602947
vt 0.529845 0.602961
vt 0.540521 0.602961
vt 0.598499 0.602965
vt 0.598496 0.625240
vt 0.540543 0.422541
vt 0.529865 0.422537
vt 0.321709 0.422522
vt 0.321711 0.402475
vt 0.598525 0.402493
vt 0.598521 0.422543
vt 0.304735 0.625221
vt 0.304738 0.602947
vt 0.304758 0.440722
vt 0.321706 0.440723
vt 0.321687 0.587203
vt 0.304740 0.587202
vt 0.304761 0.422521
vt 0.304763 0.402474
vt 0.611510 0.602966
vt 0.611507 0.625241
vt 0.611533 0.422541
vt 0.611536 0.402494
vt 0.616042 0.625242
vt 0.616045 0.602967
vt 0.616069 0.422542
vt 0.616071 0.402494
vt 0.795182 0.586755
vt 0.795183 0.595113
vt 0.777813 0.595114
vt 0.777813 0.586756
vt 0.795184 0.653464
vt 0.795184 0.650694
vt 0.956775 0.650688
vt 0.956775 0.653458
vt 0.956775 0.640501
vt 0.976853 0.640501
vt 0.976853 0.650687
vt 0.956767 0.423770
vt 0.956773 0.586749
vt 0.795176 0.423776
vt 0.777807 0.423777
vt 0.777815 0.653464
vt 0.777815 0.650694
vt 0.976854 0.653457
vt 0.976851 0.586748
vt 0.976846 0.423769
vt 0.976851 0.595107
vt 0.956774 0.595108
vt 0.795184 0.640507
vt 0.777815 0.640508
vt 0.956784 0.877739
vt 0.795192 0.877745
vt 0.795168 0.197273
vt 0.956759 0.197267
vt 0.777799 0.197273
vt 0.777823 0.877746
vt 0.976862 0.877738
vt 0.976837 0.197266
vt 0.048295 0.853367
vt 0.048295 0.845989
vt 0.250219 0.846000
vt 0.250219 0.853379
vt 0.508512 0.894884
vt 0.508513 0.904026
vt 0.303243 0.904034
vt 0.303243 0.894893
vt 0.048304 0.702117
vt 0.250228 0.702129
vt 0.050273 0.904876
vt 0.048292 0.902431
vt 0.250216 0.902443
vt 0.250216 0.904888
vt 0.506499 0.906512
vt 0.303244 0.906520
vt 0.508504 0.700393
vt 0.508510 0.846648
vt 0.303241 0.846656
vt 0.303235 0.700402
vt 0.508511 0.854149
vt 0.303241 0.854157
vt 0.048293 0.893439
vt 0.250216 0.893451
vn 0.000000 1.000000 0.000000
vn 0.000000 1.000000 0.000000
vn 0.000000 1.000000 0.000000
vn 0.000000 1.000000 0.000000
vn -1.000000 0.000000 -0.000000
vn -1.000000 0.000000 -0.000000
vn -1.000000 0.000000 -0.000000
vn -1.000000 0.000000 -0.000000
vn 0.000000 -1.000000 0.000000
vn 0.000000 -1.000000 0.000000
vn 0.000000 -1.000000 0.000000
vn 0.000000 -1.000000 0.000000
vn 0.000000 0.000000 -1.000000
vn 0.000000 0.000000 -1.000000
vn 0.000000 0.000000 -1.000000
vn 0.000000 0.000000 -1.000000
vn -0.000000 0.000000 1.000000
vn -0.000000 0.000000 1.000000
vn -0.000000 0.000000 1.000000
vn -0.000000 0.000000 1.000000
vn 0.000000 -1.000000 0.000000
vn 0.000000 -1.000000 0.000000
vn 0.000000 -1.000000 0.000000
vn 0.000000 -1.000000 0.000000
vn -1.000000 0.000000 -0.000000
vn -1.000000 0.000000 -0.000000
vn -1.000000 0.000000 -0.000000
vn -1.000000 0.000000 -0.000000
vn 0.000000 1.000000 0.000000
vn 0.000000 1.000000 0.000000
vn 0.000000 1.000000 0.000000
vn 0.000000 1.000000 0.000000
vn 0.000000 1.000000 0.000000
vn 0.000000 1.000000 0.000000
vn 0.000000 1.000000 0.000000
vn 0.000000 1.000000 0.000000
vn -1.000000 0.000000 -0.000000
vn -1.000000 0.000000 -0.000000
vn -1.000000 0.000000 -0.000000
vn -1.000000 0.000000 -0.000000
vn 0.000000 -1.000000 0.000000
vn 0.000000 -1.000000 0.000000
vn 0.000000 -1.000000 0.000000
vn 0.000000 -1.000000 0.000000
vn 0.000000 1.000000 0.000000
vn 0.000000 1.000000 0.000000
vn 0.000000 1.000000 0.000000
vn 0.000000 1.000000 0.000000
vn 0.000000 1.000000 0.000000
vn 0.000000 1.000000 0.000000
vn 0.000000 0.000000 -1.000000
vn 0.000000 0.000000 -1.000000
vn 0.000000 -1.000000 0.000000
vn 0.000000 -1.000000 0.000000
vn 0.000000 -1.000000 0.000000
vn 0.000000 -1.000000 0.000000
vn 0.000000 -1.000000 -0.000000
vn 0.000000 -1.000000 0.000000
vn -0.000000 0.000000 1.000000
vn -0.000000 0.000000 1.000000
vn 0.000000 -1.000000 0.000000
vn 0.000000 -1.000000 0.000000
vn 0.000002 -1.000000 -0.000000
vn 0.000002 -1.000000 0.000000
vn 0.000001 -1.000000 -0.000001
vn 0.000000 -1.000000 0.000000
vn 1.000000 -0.000000 0.000001
vn 1.000000 -0.000000 0.000001
vn 1.000000 -0.000000 0.000001
vn 1.000000 -0.000000 0.000001
vn 1.000000 -0.000000 0.000001
vn 1.000000 -0.000000 0.000001
vn 1.000000 0.000000 0.000000
vn 1.000000 0.000000 0.000000
vn 1.000000 0.000000 0.000000
vn 1.000000 0.000000 0.000000
vn 1.000000 -0.000000 -0.000001
vn 1.000000 -0.000000 -0.000001
vn 1.000000 -0.000000 -0.000001
vn 1.000000 -0.000000 -0.000001
vn 1.000000 -0.000000 -0.000001
vn 1.000000 -0.000000 -0.000001
vn 0.000000 0.000000 -1.000000
vn 0.000000 0.000000 -1.000000
vn 0.000000 0.000000 -1.000000
vn 0.000000 0.000000 -1.000000
vn 0.000000 0.000000 -1.000000
vn 0.000000 0.000000 -1.000000
vn 0.000000 0.000000 -1.000000
vn 0.000000 0.000000 -1.000000
vn 0.000000 0.000000 -1.000000
vn -1.000000 0.000000 -0.000000
vn -1.000000 0.000000 -0.000000
vn -1.000000 0.000000 -0.000000
vn -1.000000 0.000000 -0.000000
vn -1.000000 0.000000 -0.000000
vn -1.000000 0.000000 -0.000000
vn -0.000000 0.000000 1.000000
vn -0.000000 0.000000 1.000000
vn -0.000000 0.000000 1.000000
vn -0.000000 0.000000 1.000000
vn -0.000000 0.000000 1.000000
vn -0.000000 0.000000 1.000000
vn -0.000000 0.000000 1.000000
vn -0.000000 0.000000 1.000000
vn -0.000000 0.000000 1.000000
vn 1.000000 0.000000 0.000000
vn 1.000000 -0.000002 -0.000000
vn 1.000000 -0.000004 0.000000
vn 1.000000 -0.000004 0.000000
vn 1.000000 -0.000005 0.000000
vn 1.000000 -0.000005 0.000000
vn 1.000000 0.000000 0.000000
vn 1.000000 0.000000 0.000000
vn 0.000000 0.000000 -1.000000
vn 0.000000 0.000000 -1.000000
vn 0.000000 0.000000 -1.000000
vn 0.000000 0.000000 -1.000000
vn -1.000000 0.000000 -0.000000
vn -1.000000 0.000000 -0.000000
vn -1.000000 0.000000 -0.000000
vn -1.000000 0.000000 -0.000000
vn -1.000000 0.000000 -0.000000
vn -1.000000 0.000000 -0.000000
vn -0.000000 0.000000 1.000000
vn -0.000000 0.000000 1.000000
vn -0.000000 0.000000 1.000000
vn -0.000000 0.000000 1.000000
vn 0.000000 -1.000000 0.000000
vn 0.000000 -1.000000 0.000000
vn 0.000000 -1.000000 0.000000
vn 0.000000 -1.000000 0.000000
vn -1.000000 0.000000 -0.000000
vn -1.000000 0.000000 -0.000000
vn -1.000000 0.000000 -0.000000
vn -1.000000 0.000000 -0.000000
vn 0.000000 1.000000 0.000000
vn 0.000000 1.000000 0.000000
vn 0.000000 1.000000 0.000000
vn 0.000000 1.000000 0.000000
vn 1.000000 0.000000 0.000000
vn 1.000000 0.000000 0.000000
vn 1.000000 0.000000 0.000000
vn 1.000000 0.000000 0.000000
vn 0.000000 -1.000000 0.000000
vn 0.000000 -1.000000 0.000000
vn 0.000000 -1.000000 0.000000
vn 0.000000 -1.000000 0.000000
vn 1.000000 0.000000 0.000000
vn 1.000000 0.000000 0.000000
vn 1.000000 0.000000 0.000000
vn 1.000000 0.000000 0.000000
vn 0.000000 1.000000 0.000000
vn 0.000000 1.000000 0.000000
vn 0.000000 1.000000 0.000000
vn 0.000000 1.000000 0.000000
vn -1.000000 0.000000 -0.000000
vn -1.000000 0.000000 -0.000000
vn -1.000000 0.000000 -0.000000
vn -1.000000 0.000000 -0.000000
vn 0.053570 0.998564 0.000000
vn 0.327705 0.944780 0.000000
vn 0.327705 0.944780 0.000000
vn 0.053570 0.998564 0.000000
vn 0.514986 0.857198 0.000000
vn 0.514986 0.857198 0.000000
vn 1.000000 0.000000 0.000000
vn 1.000000 0.000000 0.000000
vn 1.000000 0.000000 0.000000
vn 1.000000 0.000000 0.000000
vn 1.000000 0.000000 0.000000
vn 1.000000 0.000000 0.000000
vn 1.000000 0.000000 0.000000
vn 0.995483 0.094939 0.000004
vn 0.995483 0.094941 0.000004
vn 0.995483 0.094941 -0.000005
vn 0.995483 0.094941 -0.000005
vn 0.053570 0.998564 0.000000
vn 0.053570 0.998564 0.000000
vn 0.053570 0.998564 0.000000
vn 0.053570 0.998564 0.000000
vn -0.000000 0.000000 1.000000
vn -0.000000 0.000000 1.000000
vn -0.000000 0.000000 1.000000
vn -0.000000 0.000000 1.000000
vn 0.000000 0.000000 -1.000000
vn 0.000000 0.000000 -1.000000
vn 0.000000 0.000000 -1.000000
vn 0.000000 0.000000 -1.000000
vn 0.327706 0.944780 0.000000
vn 0.327706 0.944780 0.000000
vn 0.514986 0.857199 0.000000
vn 0.514986 0.857198 0.000000
vn 0.913257 0.407384 0.000003
vn 0.913257 0.407384 0.000003
vn 0.913258 0.407383 -0.000003
vn 0.913258 0.407383 -0.000003
vn 0.327704 0.944780 0.000000
vn 0.327704 0.944780 0.000000
vn 0.514985 0.857199 0.000000
vn 0.514985 0.857199 0.000000
vn 1.000000 0.000000 0.000000
vn 1.000000 0.000000 0.000000
vn 1.000000 0.000000 0.000000
vn 1.000000 0.000000 0.000000
vn 1.000000 0.000000 0.000000
vn 1.000000 0.000000 0.000000
vn 1.000000 0.000000 0.000000
vn 1.000000 0.000000 0.000000
vn 1.000000 0.000000 0.000000
vn 1.000000 0.000000 0.000000
vn 1.000000 0.000000 0.000000
vn 1.000000 0.000000 0.000000
vn 1.000000 0.000000 0.000000
vn 1.000000 0.000000 0.000000
vn 1.000000 0.000000 0.000000
vn 1.000000 0.000000 0.000000
vn 1.000000 0.000000 0.000000
vn 1.000000 0.000000 0.000000
vn 1.000000 0.000000 0.000000
vn 0.000000 0.000000 -1.000000
vn 0.000000 0.000000 -1.000000
vn 0.000000 0.000000 -1.000000
vn 0.000000 0.000000 -1.000000
vn 0.000000 -1.000000 0.000000
vn 0.000000 -1.000000 0.000000
vn 0.000000 -1.000000 0.000000
vn 0.000000 -1.000000 0.000000
vn -0.000000 0.000000 1.000000
vn -0.000000 0.000000 1.000000
vn -0.000000 0.000000 1.000000
vn -0.000000 0.000000 1.000000
vn 0.000000 1.000000 0.000000
vn 0.000000 1.000000 0.000000
vn 0.000000 1.000000 0.000000
vn 0.000000 1.000000 0.000000
vn 0.000000 0.000000 -1.000000
vn 0.000000 0.000000 -1.000000
vn 0.000000 0.000000 -1.000000
vn 0.000000 0.000000 -1.000000
vn 0.000000 1.000000 0.000000
vn 0.000000 1.000000 0.000000
vn 0.000000 1.000000 0.000000
vn 0.000000 1.000000 0.000000
vn 0.000000 0.000000 -1.000000
vn 0.000000 0.000000 -1.000000
vn 0.000000 0.000000 -1.000000
vn 0.000000 0.000000 -1.000000
vn 0.000000 -1.000000 0.000000
vn 0.000000 -1.000000 0.000000
vn 0.000000 -1.000000 0.000000
vn 0.000000 -1.000000 0.000000
vn -0.000000 0.000000 1.000000
vn -0.000000 0.000000 1.000000
vn -0.000000 0.000000 1.000000
vn -0.000000 0.000000 1.000000
vn 0.000000 -1.000000 0.000000
vn 0.000000 -1.000000 0.000000
vn 0.000000 -1.000000 0.000000
vn 0.000000 -1.000000 0.000000
vn 0.000000 1.000000 0.000000
vn 0.000000 1.000000 0.000000
vn 0.000000 1.000000 0.000000
vn 0.000000 1.000000 0.000000
vn -0.000000 0.000000 1.000000
vn -0.000000 0.000000 1.000000
vn -0.000000 0.000000 1.000000
vn -0.000000 0.000000 1.000000
vn -0.000000 0.000000 1.000000
vn -0.000000 0.000000 1.000000
vn -0.000000 0.000000 1.000000
vn -0.000000 0.000000 1.000000
vn 0.000000 0.000000 -1.000000
vn 0.000000 0.000000 -1.000000
vn 0.000000 0.000000 -1.000000
vn 0.000000 0.000000 -1.000000
vn -0.000000 0.000000 1.000000
vn -0.000000 0.000000 1.000000
vn -0.000000 0.000000 1.000000
vn -0.000000 0.000000 1.000000
vn 0.000000 0.000018 -1.000000
vn 0.000000 0.000018 -1.000000
vn 0.000000 0.000018 -1.000000
vn 0.000000 0.000018 -1.000000
s 1
g pCube33
usemtl initialShadingGroup
f 88/1/1 89/2/2 98/3/3 99/4/4
s 2
f 99/37/5 100/38/6 87/39/7 88/40/8
s 3
f 102//9 103//10 84//11 85//12
s 4
f 16/84/13 34/85/14 35/86/15 4/87/16
s 5
f 38/61/17 39/62/18 13/63/19 3/64/20
s 3
f 5//21 8//22 19//23 20//24
s 2
f 3/41/25 9/42/26 37/43/27 38/44/28
s 1
f 13/5/29 14/6/30 9/7/31 3/8/32
f 11/9/33 15/10/34 16/11/35 4/12/36
s 2
f 35/45/37 36/46/38 11/47/39 4/48/40
s 3
f 17//41 18//42 12//43 6//44
s 1
f 21/13/45 22/14/46 14/6/30 13/5/29
f 97/15/47 98/3/3 89/2/2 90/16/48
f 16/11/35 15/10/34 23/17/49 24/18/50
s 4
f 24/88/51 33/89/52 34/85/14 16/84/13
s 3
f 25//53 26//54 18//42 17//41
f 103//10 104//55 83//56 84//11
f 20//24 19//23 27//57 28//58
s 5
f 13/63/19 39/62/18 40/65/59 21/66/60
s 3
f 10//61 26//54 25//53 2//62
f 82//63 83//56 104//55 105//64
f 28//58 27//57 7//65 1//66
s 9
f 41/107/67 42/108/68 79/109/69 61/110/70 30/111/71 29/112/72
s 10
f 107/135/73 108/136/74 109/137/75 110/138/76
s 9
f 62/113/77 80/114/78 43/115/79 44/116/80 32/117/81 31/118/82
s 4
f 44/90/83 45/91/84 33/89/52 32/92/85
s off
f 53/93/86 55/94/87 56/95/88 54/96/89
s 4
f 34/85/14 46/97/90 47/98/91 35/86/15
s 2
f 35/45/37 47/49/92 48/50/93 36/46/38
f 100/38/6 101/51/94 86/52/95 87/39/7
f 49/53/96 50/54/97 38/44/28 37/43/27
s 5
f 38/61/17 50/67/98 51/68/99 39/62/18
s off
f 59/69/100 60/70/101 58/71/102 57/72/103
s 5
f 52/73/104 41/74/105 29/75/106 40/65/59
s 9
f 1/119/107 7/120/108 42/108/68 41/107/67
f 105/121/109 106/122/110 81/123/111 82/124/112
f 44/116/80 43/115/79 10/125/113 2/126/114
s 4
f 2/99/115 25/100/116 45/91/84 44/90/83
f 46/97/90 45/91/84 25/100/116 17/101/117
f 47/98/91 46/97/90 17/101/117 6/102/118
s 2
f 12/55/119 48/50/93 47/49/92 6/56/120
f 85/57/121 86/52/95 101/51/94 102/58/122
f 50/54/97 49/53/96 8/59/123 5/60/124
s 5
f 5/76/125 20/77/126 51/68/99 50/67/98
f 52/73/104 51/68/99 20/77/126 28/78/127
f 41/74/105 52/73/104 28/78/127 1/79/128
s off
f 34/85/129 33/89/130 53/93/131 54/96/132
f 33/89/133 45/91/134 55/94/135 53/93/136
f 45/91/137 46/97/138 56/95/139 55/94/140
f 54/96/141 56/95/142 46/97/143 34/85/144
f 40/65/145 39/62/146 57/72/147 58/71/148
f 51/68/149 59/69/150 57/72/151 39/62/152
f 51/68/153 52/73/154 60/70/155 59/69/156
f 60/70/157 52/73/158 40/65/159 58/71/160
s 1
f 91/19/161 92/20/162 95/21/163 96/22/164
f 92/20/162 93/23/165 94/24/166 95/21/163
s 16
f 111/139/167 112/140/168 113/141/169 114/142/170
f 113/141/169 115/143/171 116/144/172 117/145/173
s 9
f 29/112/72 30/111/71 67/127/174 63/128/175
f 74/129/176 31/118/82 32/117/81 75/130/177
s 1
f 66/25/178 70/26/179 22/14/46 21/13/45
f 96/22/164 97/15/47 90/16/48 91/19/161
f 24/18/50 23/17/49 71/27/180 76/28/181
s 5
f 21/66/60 40/65/59 29/75/106 63/80/182 64/81/183 65/82/184 66/83/185
s 4
f 75/103/186 32/92/85 33/89/52 24/88/51 76/104/187 77/105/188 78/106/189
s 1
f 66/25/178 65/29/190 69/30/191 70/26/179
f 65/29/190 64/31/192 68/32/193 69/30/191
s 9
f 64/131/194 63/128/175 67/127/174 68/132/195
f 73/133/196 74/129/176 75/130/177 78/134/197
s 1
f 71/27/180 72/33/198 77/34/199 76/28/181
f 72/33/198 73/35/200 78/36/201 77/34/199
s 10
f 118/146/202 119/147/203 107/135/73 120/148/204
f 120/148/204 107/135/73 110/138/76 121/149/205
s 9
f 82/124/112 81/123/111 42/108/68 7/120/108
s 3
f 7//65 27//57 83//56 82//63
f 84//11 83//56 27//57 19//23
f 85//12 84//11 19//23 8//22
s 2
f 8/59/123 49/53/96 86/52/95 85/57/121
f 87/39/7 86/52/95 49/53/96 37/43/27
f 88/40/8 87/39/7 37/43/27 9/42/26
s 1
f 9/7/31 14/6/30 89/2/2 88/1/1
f 90/16/48 89/2/2 14/6/30 22/14/46
f 91/19/161 90/16/48 22/14/46 70/26/179
f 70/26/179 69/30/191 92/20/162 91/19/161
f 69/30/191 68/32/193 93/23/165 92/20/162
s 16
f 122/150/206 123/151/207 112/140/168 111/139/167
f 114/142/170 113/141/169 117/145/173 124/152/208
s 1
f 95/21/163 94/24/166 73/35/200 72/33/198
f 96/22/164 95/21/163 72/33/198 71/27/180
f 23/17/49 97/15/47 96/22/164 71/27/180
f 15/10/34 98/3/3 97/15/47 23/17/49
f 99/4/4 98/3/3 15/10/34 11/9/33
s 2
f 36/46/38 100/38/6 99/37/5 11/47/39
f 36/46/38 48/50/93 101/51/94 100/38/6
f 102/58/122 101/51/94 48/50/93 12/55/119
s 3
f 18//42 103//10 102//9 12//43
f 26//54 104//55 103//10 18//42
f 105//64 104//55 26//54 10//61
s 9
f 43/115/79 106/122/110 105/121/109 10/125/113
s 10
f 125/153/209 119/147/203 118/146/202 126/154/210
f 127/155/211 128/156/212 119/147/203 125/153/209
f 119/147/203 128/156/212 108/136/74 107/135/73
f 109/137/75 108/136/74 129/157/213 130/158/214
f 128/156/212 127/155/211 116/144/215 115/143/216
s 16
f 112/140/168 129/157/217 115/143/171 113/141/169
f 123/151/207 130/158/218 129/157/217 112/140/168
f 115/143/171 129/157/217 108/136/219 128/156/220
s off
f 61/167/221 79/168/222 110/169/223 109/170/224
f 94/159/225 93/160/226 111/139/227 114/142/228
f 31/171/229 74/172/230 117/173/231 116/174/232
f 81/161/233 106/162/234 118/146/235 120/148/236
f 79/168/237 42/175/238 121/176/239 110/169/240
f 42/163/241 81/161/242 120/148/243 121/149/244
f 68/177/245 67/178/246 123/179/247 122/180/248
f 93/160/249 68/164/250 122/150/251 111/139/252
f 74/172/253 73/181/254 124/182/255 117/173/256
f 73/165/257 94/159/258 114/142/259 124/152/260
f 106/162/261 43/166/262 126/154/263 118/146/264
f 43/183/265 80/184/266 125/185/267 126/186/268
f 80/184/269 62/187/270 127/188/271 125/185/272
f 30/189/273 61/167/274 109/170/275 130/190/276
f 62/187/277 31/171/278 116/174/279 127/188/280
f 67/178/281 30/189/282 130/190/283 123/179/284
