# This file uses centimeters as units for non-parametric coordinates.

mtllib wall10002.mtl
g default
v 1036.270141 -30.508340 4069.310661
v 1064.932739 -30.508340 4069.310661
v 1036.270141 969.492197 4069.310661
v 1064.932739 969.492197 4069.310661
v 1036.270141 969.492197 599.310661
v 1064.932739 969.492197 599.310661
v 1036.270141 -30.508340 599.310661
v 1064.932739 -30.508340 599.310661
vt 0.375000 0.000000
vt 0.625000 0.000000
vt 0.375000 0.250000
vt 0.625000 0.250000
vt 0.375000 0.500000
vt 0.625000 0.500000
vt 0.375000 0.750000
vt 0.625000 0.750000
vt 0.375000 1.000000
vt 0.625000 1.000000
vt 0.875000 0.000000
vt 0.875000 0.250000
vt 0.125000 0.000000
vt 0.125000 0.250000
vn 0.000000 0.000000 1.000000
vn 0.000000 0.000000 1.000000
vn 0.000000 0.000000 1.000000
vn 0.000000 0.000000 1.000000
vn 0.000000 1.000000 0.000000
vn 0.000000 1.000000 0.000000
vn 0.000000 1.000000 0.000000
vn 0.000000 1.000000 0.000000
vn 0.000000 0.000000 -1.000000
vn 0.000000 0.000000 -1.000000
vn 0.000000 0.000000 -1.000000
vn 0.000000 0.000000 -1.000000
vn 1.000000 0.000000 0.000000
vn 1.000000 0.000000 0.000000
vn 1.000000 0.000000 0.000000
vn 1.000000 0.000000 0.000000
vn -1.000000 0.000000 0.000000
vn -1.000000 0.000000 0.000000
vn -1.000000 0.000000 0.000000
vn -1.000000 0.000000 0.000000
vn 0.000000 -1.000000 0.000000
vn 0.000000 -1.000000 0.000000
vn 0.000000 -1.000000 0.000000
vn 0.000000 -1.000000 0.000000
s off
g pCube6
usemtl initialShadingGroup
f 2/2/1 4/4/2 3/3/3 1/1/4
f 3/3/5 4/4/6 6/6/7 5/5/8
f 5/5/9 6/6/10 8/8/11 7/7/12
f 6/12/13 4/4/14 2/2/15 8/11/16
f 1/1/17 3/3/18 5/14/19 7/13/20
f 8/8/21 2/10/22 1/9/23 7/7/24
