# This file uses centimeters as units for non-parametric coordinates.

mtllib walldoor1000.mtl
g default
v -360.079123 2278.379755 2899.125447
v -331.416525 2278.379755 2899.125447
v -360.079123 3278.380709 2899.125447
v -331.416525 3278.380709 2899.125447
v -360.079123 3278.380709 -300.874267
v -331.416525 3278.380709 -300.874267
v -360.079123 2278.379755 -300.874267
v -331.416525 2278.379755 -300.874267
v -331.416525 3278.380709 1290.751137
v -360.079123 3278.380709 1290.751137
v -360.079123 2579.668837 2899.125447
v -331.416525 2579.668837 2899.125447
v -331.416525 2579.668837 1290.751137
v -331.416525 2579.668837 -300.874267
v -360.079123 2579.668837 -300.874267
v -360.079123 2579.668837 1290.751137
v -331.416525 3278.380709 1394.784131
v -331.416525 2579.668837 1394.784131
v -331.416525 2278.379755 1394.784131
v -360.079123 2278.379755 1394.784131
v -360.079123 2579.668837 1394.784035
v -360.079123 3278.380709 1394.784131
v -331.416525 3278.380709 1192.133488
v -360.079123 3278.380709 1192.133488
v -360.079123 2579.668837 1192.134251
v -360.079123 2278.379755 1192.133488
v -331.416525 2278.379755 1192.133488
v -331.416525 2579.668837 1192.133488
vt 0.375000 0.000000
vt 0.625000 0.000000
vt 0.375000 0.250000
vt 0.625000 0.250000
vt 0.375000 0.500000
vt 0.625000 0.500000
vt 0.375000 0.750000
vt 0.625000 0.750000
vt 0.375000 1.000000
vt 0.625000 1.000000
vt 0.875000 0.000000
vt 0.875000 0.250000
vt 0.125000 0.000000
vt 0.125000 0.250000
vt 0.625000 0.375654
vt 0.750654 0.250000
vt 0.249346 0.250000
vt 0.375000 0.375654
vt 0.375000 0.075322
vt 0.625000 0.075322
vt 0.750654 0.075322
vt 0.625000 0.674678
vt 0.875000 0.075322
vt 0.125000 0.075322
vt 0.375000 0.674678
vt 0.249350 0.075338
vt 0.625000 0.367527
vt 0.742527 0.250000
vt 0.742515 0.075333
vt 0.742500 0.000041
vt 0.625000 0.882500
vt 0.375000 0.882473
vt 0.257473 0.000000
vt 0.257481 0.075327
vt 0.257473 0.250000
vt 0.375000 0.367527
vt 0.625000 0.383359
vt 0.758359 0.250000
vt 0.241641 0.250000
vt 0.375000 0.383359
vt 0.241635 0.075327
vt 0.375000 0.866641
vt 0.241641 0.000000
vt 0.758387 0.000042
vt 0.625000 0.866614
vt 0.758366 0.075326
vt 0.000000 0.000000
vt 0.999207 0.000000
vt 0.999578 1.177042
vt 0.000550 1.177042
vt 0.000793 0.000000
vt 1.000000 0.000000
vt 0.999578 1.177042
vt 0.000550 1.177042
vt 0.000000 0.000000
vt 1.000000 0.000000
vt 0.968038 1.146750
vt 0.066017 1.146750
vt 0.000000 0.000000
vt 1.000000 0.000000
vt 0.927396 1.146750
vt 0.035123 1.146750
vn 0.000000 0.000000 1.000000
vn 0.000000 0.000000 1.000000
vn 0.000000 0.000000 1.000000
vn 0.000000 0.000000 1.000000
vn 0.000000 1.000000 0.000000
vn 0.000000 1.000000 0.000000
vn 0.000000 1.000000 0.000000
vn 0.000000 1.000000 0.000000
vn 0.000000 0.000000 -1.000000
vn 0.000000 0.000000 -1.000000
vn 0.000000 0.000000 -1.000000
vn 0.000000 0.000000 -1.000000
vn 1.000000 0.000000 0.000000
vn 1.000000 0.000000 0.000000
vn 1.000000 0.000000 0.000000
vn 1.000000 0.000000 0.000000
vn -1.000000 0.000000 0.000000
vn -1.000000 0.000000 0.000000
vn -1.000000 0.000000 0.000000
vn -1.000000 0.000000 0.000000
vn 0.000000 1.000000 0.000000
vn 0.000000 1.000000 0.000000
vn -1.000000 0.000000 0.000000
vn -1.000000 0.000000 0.000000
vn 1.000000 0.000000 0.000000
vn 1.000000 0.000000 0.000000
vn 0.000000 0.000000 1.000000
vn 0.000000 0.000000 1.000000
vn 0.000000 0.000000 -1.000000
vn 0.000000 0.000000 -1.000000
vn 1.000000 0.000000 0.000000
vn 1.000000 0.000000 0.000000
vn 1.000000 0.000000 0.000000
vn 1.000000 0.000000 0.000000
vn 0.000000 -1.000000 0.000000
vn 0.000000 -1.000000 0.000000
vn 0.000000 -1.000000 0.000000
vn 0.000000 -1.000000 0.000000
vn -1.000000 0.000000 0.000000
vn -1.000000 0.000000 0.000000
vn -1.000000 0.000000 0.000000
vn -1.000000 0.000000 0.000000
vn 0.000000 1.000000 0.000000
vn 0.000000 1.000000 0.000000
vn 0.000000 1.000000 0.000000
vn 0.000000 1.000000 0.000000
vn -1.000000 0.000000 0.000000
vn -1.000000 0.000000 0.000000
vn -1.000000 0.000000 0.000000
vn -1.000000 0.000000 0.000000
vn 0.000000 -1.000000 0.000000
vn 0.000000 -1.000000 0.000000
vn 0.000000 -1.000000 0.000000
vn 0.000000 -1.000000 0.000000
vn 1.000000 0.000000 0.000000
vn 1.000000 0.000000 0.000000
vn 1.000000 0.000000 0.000000
vn 1.000000 0.000000 0.000000
vn 0.000002 -0.000000 -1.000000
vn 0.000002 -0.000000 -1.000000
vn 0.000002 -0.000000 -1.000000
vn 0.000002 -0.000000 -1.000000
vn 0.000013 -0.000001 1.000000
vn 0.000013 -0.000001 1.000000
vn 0.000013 -0.000001 1.000000
vn 0.000013 -0.000001 1.000000
vn 0.000000 -1.000000 0.000000
vn 0.000000 -1.000000 0.000000
vn 0.000000 -1.000000 0.000000
vn 0.000000 -1.000000 0.000000
vn 0.000000 -1.000000 0.000000
vn 0.000000 -1.000000 0.000000
s 1
g pCube8
usemtl initialShadingGroup
f 11/19/1 12/20/2 4/4/3 3/3/4
s 2
f 22/36/5 17/27/6 9/15/7 10/18/8
s 3
f 5/5/9 6/6/10 14/22/11 15/25/12
s 4
f 17/28/13 18/29/14 13/21/15 9/16/16
s 5
f 16/26/17 21/34/18 22/35/19 10/17/20
s 2
f 10/18/8 9/15/7 23/37/21 24/40/22
s 5
f 24/39/23 25/41/24 16/26/17 10/17/20
s 4
f 9/16/16 13/21/15 28/46/25 23/38/26
s 1
f 2/2/27 12/20/2 11/19/1 1/1/28
s 3
f 15/25/12 14/22/11 8/8/29 7/7/30
s 4
f 12/20/31 18/29/14 17/28/13 4/4/32
f 19/30/33 18/29/14 12/20/31 2/2/34
s off
f 20/32/35 19/31/36 2/10/37 1/9/38
s 5
f 1/1/39 11/19/40 21/34/18 20/33/41
f 22/35/19 21/34/18 11/19/40 3/3/42
s 2
f 3/3/43 4/4/44 17/27/6 22/36/5
f 24/40/22 23/37/21 6/6/45 5/5/46
s 5
f 15/24/47 25/41/24 24/39/23 5/14/48
f 26/43/49 25/41/24 15/24/47 7/13/50
s off
f 27/45/51 26/42/52 7/7/53 8/8/54
s 4
f 28/46/25 27/44/55 8/11/56 14/23/57
f 23/38/26 28/46/25 14/23/57 6/12/58
s off
f 20/47/59 21/48/60 18/49/61 19/50/62
f 25/51/63 26/52/64 27/53/65 28/54/66
s 6
f 13/55/67 18/56/68 21/57/69 16/58/70
f 28/59/71 13/60/67 16/61/70 25/62/72
